<?xml version="1.0" encoding="UTF-8"?>
<svg version="1.1" xmlns="http://www.w3.org/2000/svg" width="1200" height="288">
<path d="M0 0 C396 0 792 0 1200 0 C1200 95.04 1200 190.08 1200 288 C804 288 408 288 0 288 C0 192.96 0 97.92 0 0 Z " fill="#FDFDFD" transform="translate(0,0)"/>
<path d="M0 0 C0 0.99 0 1.98 0 3 C2.64 3.33 5.28 3.66 8 4 C8 4.66 8 5.32 8 6 C9.32 6 10.64 6 12 6 C12 6.66 12 7.32 12 8 C12.66 8 13.32 8 14 8 C14 8.99 14 9.98 14 11 C14.66 11 15.32 11 16 11 C16 11.66 16 12.32 16 13 C16.66 13 17.32 13 18 13 C18 13.66 18 14.32 18 15 C18.66 15 19.32 15 20 15 C20 15.66 20 16.32 20 17 C20.66 17 21.32 17 22 17 C22 17.66 22 18.32 22 19 C22.66 19 23.32 19 24 19 C24 19.66 24 20.32 24 21 C24.66 21 25.32 21 26 21 C26 22.32 26 23.64 26 25 C26.66 25 27.32 25 28 25 C28 26.32 28 27.64 28 29 C28.66 29 29.32 29 30 29 C30 30.32 30 31.64 30 33 C30.66 33 31.32 33 32 33 C32 34.32 32 35.64 32 37 C32.66 37 33.32 37 34 37 C34 39.64 34 42.28 34 45 C34.66 45 35.32 45 36 45 C36 76.35 36 107.7 36 140 C35.34 140 34.68 140 34 140 C34 140.66 34 141.32 34 142 C24.1 142 14.2 142 4 142 C4 110.65 4 79.3 4 47 C3.34 47 2.68 47 2 47 C2 45.68 2 44.36 2 43 C1.34 43 0.68 43 0 43 C0 42.34 0 41.68 0 41 C-0.66 41 -1.32 41 -2 41 C-2 40.34 -2 39.68 -2 39 C-2.66 39 -3.32 39 -4 39 C-4.33 37.68 -4.66 36.36 -5 35 C-6.32 35 -7.64 35 -9 35 C-9 34.34 -9 33.68 -9 33 C-10.32 33 -11.64 33 -13 33 C-13 32.34 -13 31.68 -13 31 C-17.05308333 29.89210465 -21.07111374 29.66268733 -25.25 29.4375 C-25.99507812 29.39431641 -26.74015625 29.35113281 -27.5078125 29.30664062 C-29.338349 29.20103275 -31.16915176 29.10005799 -33 29 C-33 29.66 -33 30.32 -33 31 C-34.98 31 -36.96 31 -39 31 C-39 31.66 -39 32.32 -39 33 C-39.66 33 -40.32 33 -41 33 C-41 33.66 -41 34.32 -41 35 C-42.32 35 -43.64 35 -45 35 C-45 35.66 -45 36.32 -45 37 C-45.66 37 -46.32 37 -47 37 C-47 37.66 -47 38.32 -47 39 C-47.66 39 -48.32 39 -49 39 C-49 40.32 -49 41.64 -49 43 C-49.66 43 -50.32 43 -51 43 C-51 43.66 -51 44.32 -51 45 C-51.66 45 -52.32 45 -53 45 C-53 46.32 -53 47.64 -53 49 C-53.66 49 -54.32 49 -55 49 C-55 79.69 -55 110.38 -55 142 C-64.9 142 -74.8 142 -85 142 C-85 111.31 -85 80.62 -85 49 C-85.66 49 -86.32 49 -87 49 C-87 47.68 -87 46.36 -87 45 C-87.66 45 -88.32 45 -89 45 C-89 44.34 -89 43.68 -89 43 C-89.66 43 -90.32 43 -91 43 C-91 41.68 -91 40.36 -91 39 C-91.66 39 -92.32 39 -93 39 C-93 38.34 -93 37.68 -93 37 C-93.66 37 -94.32 37 -95 37 C-95 36.34 -95 35.68 -95 35 C-96.32 35 -97.64 35 -99 35 C-99 34.34 -99 33.68 -99 33 C-100.32 33 -101.64 33 -103 33 C-103 32.34 -103 31.68 -103 31 C-106.84841348 29.81968762 -110.758279 29.66764649 -114.75 29.4375 C-115.79607422 29.37272461 -115.79607422 29.37272461 -116.86328125 29.30664062 C-118.57531922 29.20110404 -120.28763561 29.1001009 -122 29 C-122 29.66 -122 30.32 -122 31 C-123.98 31 -125.96 31 -128 31 C-128 31.66 -128 32.32 -128 33 C-129.32 33 -130.64 33 -132 33 C-132 33.66 -132 34.32 -132 35 C-132.66 35 -133.32 35 -134 35 C-134 35.66 -134 36.32 -134 37 C-134.66 37 -135.32 37 -136 37 C-136 37.66 -136 38.32 -136 39 C-136.66 39 -137.32 39 -138 39 C-138 39.66 -138 40.32 -138 41 C-138.66 41 -139.32 41 -140 41 C-140 42.32 -140 43.64 -140 45 C-140.66 45 -141.32 45 -142 45 C-142 46.32 -142 47.64 -142 49 C-142.66 49 -143.32 49 -144 49 C-144 79.03 -144 109.06 -144 140 C-144.66 140 -145.32 140 -146 140 C-146 140.66 -146 141.32 -146 142 C-155.24 142 -164.48 142 -174 142 C-174 108.67 -174 75.34 -174 41 C-173.34 41 -172.68 41 -172 41 C-172 39.02 -172 37.04 -172 35 C-171.34 35 -170.68 35 -170 35 C-170 33.68 -170 32.36 -170 31 C-169.34 31 -168.68 31 -168 31 C-168 29.68 -168 28.36 -168 27 C-167.34 27 -166.68 27 -166 27 C-166 25.68 -166 24.36 -166 23 C-165.34 23 -164.68 23 -164 23 C-164 22.34 -164 21.68 -164 21 C-163.34 21 -162.68 21 -162 21 C-162 20.01 -162 19.02 -162 18 C-160.68 17.67 -159.36 17.34 -158 17 C-158 16.34 -158 15.68 -158 15 C-157.34 15 -156.68 15 -156 15 C-156 14.34 -156 13.68 -156 13 C-155.34 13 -154.68 13 -154 13 C-154 12.01 -154 11.02 -154 10 C-152.68 9.67 -151.36 9.34 -150 9 C-150 8.34 -150 7.68 -150 7 C-144.25 4 -144.25 4 -142 4 C-142 3.34 -142 2.68 -142 2 C-137.23692563 1.04738513 -132.8333472 0.91666643 -128 1 C-128 0.34 -128 -0.32 -128 -1 C-123.97985669 -1.04970693 -119.95983422 -1.08586387 -115.93945312 -1.10986328 C-114.5738615 -1.1198759 -113.20829106 -1.13349005 -111.84277344 -1.15087891 C-109.87184088 -1.17533573 -107.90074716 -1.1854572 -105.9296875 -1.1953125 C-104.74616699 -1.20578613 -103.56264648 -1.21625977 -102.34326172 -1.22705078 C-98.91307389 -0.99409659 -96.19696189 -0.23025564 -93 1 C-93 1.66 -93 2.32 -93 3 C-92.13375 2.938125 -91.2675 2.87625 -90.375 2.8125 C-86.55800967 3.02455502 -84.28922464 4.12044307 -81 6 C-81 6.99 -81 7.98 -81 9 C-79.68 9 -78.36 9 -77 9 C-77 9.66 -77 10.32 -77 11 C-76.34 11 -75.68 11 -75 11 C-75 11.66 -75 12.32 -75 13 C-74.34 13 -73.68 13 -73 13 C-73 13.66 -73 14.32 -73 15 C-71.02 15 -69.04 15 -67 15 C-67 14.34 -67 13.68 -67 13 C-66.34 13 -65.68 13 -65 13 C-65 12.34 -65 11.68 -65 11 C-64.34 11 -63.68 11 -63 11 C-63 10.34 -63 9.68 -63 9 C-62.34 9 -61.68 9 -61 9 C-61 8.34 -61 7.68 -61 7 C-59.37750059 6.16180842 -57.75191503 5.3295884 -56.125 4.5 C-55.22007812 4.0359375 -54.31515625 3.571875 -53.3828125 3.09375 C-51 2 -51 2 -49 2 C-49 1.34 -49 0.68 -49 0 C-32.3429466 -3.6342662 -16.65505384 -4.02944851 0 0 Z " fill="#050505" transform="translate(568,84)"/>
<path d="M0 0 C1.30259766 -0.00773437 2.60519531 -0.01546875 3.94726562 -0.0234375 C11.58025038 -0.0080871 18.74072712 0.54488419 26.1875 2.25 C26.1875 2.91 26.1875 3.57 26.1875 4.25 C27.05375 4.518125 27.92 4.78625 28.8125 5.0625 C32.10541964 6.22111987 35.09877875 7.63209839 38.1875 9.25 C38.1875 9.91 38.1875 10.57 38.1875 11.25 C39.5075 11.25 40.8275 11.25 42.1875 11.25 C42.1875 11.91 42.1875 12.57 42.1875 13.25 C42.8475 13.25 43.5075 13.25 44.1875 13.25 C44.1875 13.91 44.1875 14.57 44.1875 15.25 C45.5075 15.25 46.8275 15.25 48.1875 15.25 C48.1875 15.91 48.1875 16.57 48.1875 17.25 C48.8475 17.25 49.5075 17.25 50.1875 17.25 C50.1875 17.91 50.1875 18.57 50.1875 19.25 C50.8475 19.25 51.5075 19.25 52.1875 19.25 C52.1875 19.91 52.1875 20.57 52.1875 21.25 C52.8475 21.25 53.5075 21.25 54.1875 21.25 C54.1875 21.91 54.1875 22.57 54.1875 23.25 C54.8475 23.25 55.5075 23.25 56.1875 23.25 C56.1875 24.57 56.1875 25.89 56.1875 27.25 C56.8475 27.25 57.5075 27.25 58.1875 27.25 C58.1875 27.91 58.1875 28.57 58.1875 29.25 C58.8475 29.25 59.5075 29.25 60.1875 29.25 C60.1875 29.91 60.1875 30.57 60.1875 31.25 C60.8475 31.25 61.5075 31.25 62.1875 31.25 C62.1875 32.57 62.1875 33.89 62.1875 35.25 C62.8475 35.25 63.5075 35.25 64.1875 35.25 C64.1875 35.91 64.1875 36.57 64.1875 37.25 C64.8475 37.25 65.5075 37.25 66.1875 37.25 C66.1875 38.57 66.1875 39.89 66.1875 41.25 C66.8475 41.25 67.5075 41.25 68.1875 41.25 C68.1875 43.23 68.1875 45.21 68.1875 47.25 C68.8475 47.25 69.5075 47.25 70.1875 47.25 C70.1875 49.89 70.1875 52.53 70.1875 55.25 C70.8475 55.25 71.5075 55.25 72.1875 55.25 C72.1875 65.15 72.1875 75.05 72.1875 85.25 C71.5275 85.25 70.8675 85.25 70.1875 85.25 C70.1875 85.91 70.1875 86.57 70.1875 87.25 C34.8775 87.25 -0.4325 87.25 -36.8125 87.25 C-36.8125 88.57 -36.8125 89.89 -36.8125 91.25 C-36.1525 91.25 -35.4925 91.25 -34.8125 91.25 C-34.8125 91.91 -34.8125 92.57 -34.8125 93.25 C-34.1525 93.25 -33.4925 93.25 -32.8125 93.25 C-32.8125 94.57 -32.8125 95.89 -32.8125 97.25 C-32.1525 97.25 -31.4925 97.25 -30.8125 97.25 C-30.8125 97.91 -30.8125 98.57 -30.8125 99.25 C-30.1525 99.25 -29.4925 99.25 -28.8125 99.25 C-28.8125 100.24 -28.8125 101.23 -28.8125 102.25 C-28.1525 102.25 -27.4925 102.25 -26.8125 102.25 C-26.8125 103.24 -26.8125 104.23 -26.8125 105.25 C-26.1525 105.25 -25.4925 105.25 -24.8125 105.25 C-24.8125 105.91 -24.8125 106.57 -24.8125 107.25 C-21.8425 108.24 -21.8425 108.24 -18.8125 109.25 C-18.8125 110.24 -18.8125 111.23 -18.8125 112.25 C-17.4925 112.25 -16.1725 112.25 -14.8125 112.25 C-14.8125 112.91 -14.8125 113.57 -14.8125 114.25 C-13.4925 114.25 -12.1725 114.25 -10.8125 114.25 C-10.8125 114.91 -10.8125 115.57 -10.8125 116.25 C-6.77329096 116.20570959 -2.73540458 116.13573679 1.30297852 116.04248047 C2.67524907 116.01434625 4.04767941 115.99309414 5.42016602 115.97900391 C7.39888494 115.95747269 9.3772477 115.9087072 11.35546875 115.859375 C12.54422607 115.83842773 13.7329834 115.81748047 14.95776367 115.79589844 C18.77484204 115.15072592 20.37080154 113.8356052 23.1875 111.25 C27.91106537 108.57537565 32.25198343 106.18208714 37.75 106.375 C40.1875 107.25 40.1875 107.25 42.1875 108.25 C42.1875 109.57 42.1875 110.89 42.1875 112.25 C42.8475 112.25 43.5075 112.25 44.1875 112.25 C44.1875 112.91 44.1875 113.57 44.1875 114.25 C46.1675 114.745 46.1675 114.745 48.1875 115.25 C48.1875 116.24 48.1875 117.23 48.1875 118.25 C48.8475 118.25 49.5075 118.25 50.1875 118.25 C50.1875 120.89 50.1875 123.53 50.1875 126.25 C49.5275 126.25 48.8675 126.25 48.1875 126.25 C48.1875 126.91 48.1875 127.57 48.1875 128.25 C47.5275 128.25 46.8675 128.25 46.1875 128.25 C46.1875 128.91 46.1875 129.57 46.1875 130.25 C45.5275 130.25 44.8675 130.25 44.1875 130.25 C44.1875 130.91 44.1875 131.57 44.1875 132.25 C43.5275 132.25 42.8675 132.25 42.1875 132.25 C42.1875 132.91 42.1875 133.57 42.1875 134.25 C41.5275 134.25 40.8675 134.25 40.1875 134.25 C40.1875 134.91 40.1875 135.57 40.1875 136.25 C39.5275 136.25 38.8675 136.25 38.1875 136.25 C38.1875 136.91 38.1875 137.57 38.1875 138.25 C37.5275 138.25 36.8675 138.25 36.1875 138.25 C36.1875 138.91 36.1875 139.57 36.1875 140.25 C33.5475 140.25 30.9075 140.25 28.1875 140.25 C28.1875 140.91 28.1875 141.57 28.1875 142.25 C26.8675 142.25 25.5475 142.25 24.1875 142.25 C24.1875 142.91 24.1875 143.57 24.1875 144.25 C22.2075 144.25 20.2275 144.25 18.1875 144.25 C18.1875 144.91 18.1875 145.57 18.1875 146.25 C7.2975 146.25 -3.5925 146.25 -14.8125 146.25 C-14.8125 145.59 -14.8125 144.93 -14.8125 144.25 C-16.1325 144.25 -17.4525 144.25 -18.8125 144.25 C-18.8125 143.59 -18.8125 142.93 -18.8125 142.25 C-21.4525 142.25 -24.0925 142.25 -26.8125 142.25 C-26.8125 141.59 -26.8125 140.93 -26.8125 140.25 C-28.1325 140.25 -29.4525 140.25 -30.8125 140.25 C-30.8125 139.59 -30.8125 138.93 -30.8125 138.25 C-32.1325 138.25 -33.4525 138.25 -34.8125 138.25 C-34.8125 137.59 -34.8125 136.93 -34.8125 136.25 C-35.4725 136.25 -36.1325 136.25 -36.8125 136.25 C-36.8125 135.59 -36.8125 134.93 -36.8125 134.25 C-38.1325 134.25 -39.4525 134.25 -40.8125 134.25 C-40.8125 133.59 -40.8125 132.93 -40.8125 132.25 C-41.4725 132.25 -42.1325 132.25 -42.8125 132.25 C-42.8125 131.59 -42.8125 130.93 -42.8125 130.25 C-43.4725 130.25 -44.1325 130.25 -44.8125 130.25 C-44.8125 129.59 -44.8125 128.93 -44.8125 128.25 C-45.4725 128.25 -46.1325 128.25 -46.8125 128.25 C-46.8125 127.59 -46.8125 126.93 -46.8125 126.25 C-47.4725 126.25 -48.1325 126.25 -48.8125 126.25 C-48.8125 125.59 -48.8125 124.93 -48.8125 124.25 C-49.4725 124.25 -50.1325 124.25 -50.8125 124.25 C-50.8125 123.59 -50.8125 122.93 -50.8125 122.25 C-51.4725 122.25 -52.1325 122.25 -52.8125 122.25 C-52.8125 121.59 -52.8125 120.93 -52.8125 120.25 C-53.4725 120.25 -54.1325 120.25 -54.8125 120.25 C-54.8125 118.93 -54.8125 117.61 -54.8125 116.25 C-55.4725 116.25 -56.1325 116.25 -56.8125 116.25 C-56.8125 115.26 -56.8125 114.27 -56.8125 113.25 C-57.4725 113.25 -58.1325 113.25 -58.8125 113.25 C-58.8125 112.59 -58.8125 111.93 -58.8125 111.25 C-59.4725 111.25 -60.1325 111.25 -60.8125 111.25 C-63.2419516 107.6058226 -62.97429575 105.53758728 -62.8125 101.25 C-63.4725 101.25 -64.1325 101.25 -64.8125 101.25 C-64.8125 99.27 -64.8125 97.29 -64.8125 95.25 C-65.4725 95.25 -66.1325 95.25 -66.8125 95.25 C-69.11567427 91.59625531 -69.07047672 88.46939251 -69.078125 84.2109375 C-69.08003845 83.53004059 -69.0819519 82.84914368 -69.08392334 82.14761353 C-69.08528188 80.70696646 -69.08160855 79.26630701 -69.07324219 77.82568359 C-69.06263682 75.6530293 -69.07309633 73.48122074 -69.0859375 71.30859375 C-69.09242786 63.77133472 -68.7623114 56.58066904 -66.8125 49.25 C-66.1525 49.25 -65.4925 49.25 -64.8125 49.25 C-64.8125 47.93 -64.8125 46.61 -64.8125 45.25 C-64.1525 45.25 -63.4925 45.25 -62.8125 45.25 C-62.8125 43.27 -62.8125 41.29 -62.8125 39.25 C-62.1525 39.25 -61.4925 39.25 -60.8125 39.25 C-60.8125 37.93 -60.8125 36.61 -60.8125 35.25 C-60.1525 35.25 -59.4925 35.25 -58.8125 35.25 C-58.8125 33.93 -58.8125 32.61 -58.8125 31.25 C-58.1525 31.25 -57.4925 31.25 -56.8125 31.25 C-56.8125 30.59 -56.8125 29.93 -56.8125 29.25 C-56.1525 29.25 -55.4925 29.25 -54.8125 29.25 C-54.8125 27.93 -54.8125 26.61 -54.8125 25.25 C-54.1525 25.25 -53.4925 25.25 -52.8125 25.25 C-52.8125 24.59 -52.8125 23.93 -52.8125 23.25 C-52.1525 23.25 -51.4925 23.25 -50.8125 23.25 C-50.8125 22.59 -50.8125 21.93 -50.8125 21.25 C-50.1525 21.25 -49.4925 21.25 -48.8125 21.25 C-48.8125 20.59 -48.8125 19.93 -48.8125 19.25 C-48.1525 19.25 -47.4925 19.25 -46.8125 19.25 C-46.8125 18.26 -46.8125 17.27 -46.8125 16.25 C-45.4925 15.92 -44.1725 15.59 -42.8125 15.25 C-42.8125 14.59 -42.8125 13.93 -42.8125 13.25 C-39.72440305 11.48537317 -38.57937864 11.25 -34.8125 11.25 C-34.8125 10.59 -34.8125 9.93 -34.8125 9.25 C-33.4925 9.25 -32.1725 9.25 -30.8125 9.25 C-30.8125 8.26 -30.8125 7.27 -30.8125 6.25 C-27.72440305 4.48537317 -26.57937864 4.25 -22.8125 4.25 C-22.8125 3.59 -22.8125 2.93 -22.8125 2.25 C-15.24294547 -0.17379637 -7.89665518 -0.04647369 0 0 Z " fill="#050505" transform="translate(1054.8125,81.75)"/>
<path d="M0 0 C0.76837189 0.0028299 1.53674377 0.00565979 2.32839966 0.00857544 C4.76336771 0.01969939 7.19795712 0.0447889 9.6328125 0.0703125 C11.29166132 0.08035239 12.95051596 0.08947647 14.609375 0.09765625 C18.65899829 0.11961313 22.70834137 0.15408844 26.7578125 0.1953125 C26.7578125 0.8553125 26.7578125 1.5153125 26.7578125 2.1953125 C27.9953125 2.3190625 29.2328125 2.4428125 30.5078125 2.5703125 C33.70229176 2.96261697 35.91247811 3.67780083 38.7578125 5.1953125 C40.74891651 5.57821712 42.74881763 5.92135865 44.7578125 6.1953125 C44.7578125 6.8553125 44.7578125 7.5153125 44.7578125 8.1953125 C46.0778125 8.1953125 47.3978125 8.1953125 48.7578125 8.1953125 C48.7578125 8.8553125 48.7578125 9.5153125 48.7578125 10.1953125 C49.4178125 10.1953125 50.0778125 10.1953125 50.7578125 10.1953125 C50.7578125 10.8553125 50.7578125 11.5153125 50.7578125 12.1953125 C51.4178125 12.1953125 52.0778125 12.1953125 52.7578125 12.1953125 C52.7578125 13.1853125 52.7578125 14.1753125 52.7578125 15.1953125 C53.4178125 15.1953125 54.0778125 15.1953125 54.7578125 15.1953125 C54.7578125 15.8553125 54.7578125 16.5153125 54.7578125 17.1953125 C56.0778125 17.1953125 57.3978125 17.1953125 58.7578125 17.1953125 C58.7578125 17.8553125 58.7578125 18.5153125 58.7578125 19.1953125 C59.4178125 19.1953125 60.0778125 19.1953125 60.7578125 19.1953125 C60.7578125 19.8553125 60.7578125 20.5153125 60.7578125 21.1953125 C61.4178125 21.1953125 62.0778125 21.1953125 62.7578125 21.1953125 C62.7578125 21.8553125 62.7578125 22.5153125 62.7578125 23.1953125 C63.4178125 23.1953125 64.0778125 23.1953125 64.7578125 23.1953125 C64.7578125 24.5153125 64.7578125 25.8353125 64.7578125 27.1953125 C65.4178125 27.1953125 66.0778125 27.1953125 66.7578125 27.1953125 C66.7578125 27.8553125 66.7578125 28.5153125 66.7578125 29.1953125 C67.4178125 29.1953125 68.0778125 29.1953125 68.7578125 29.1953125 C68.7578125 29.8553125 68.7578125 30.5153125 68.7578125 31.1953125 C69.4178125 31.1953125 70.0778125 31.1953125 70.7578125 31.1953125 C70.7578125 32.5153125 70.7578125 33.8353125 70.7578125 35.1953125 C71.4178125 35.1953125 72.0778125 35.1953125 72.7578125 35.1953125 C72.7578125 37.1753125 72.7578125 39.1553125 72.7578125 41.1953125 C73.4178125 41.1953125 74.0778125 41.1953125 74.7578125 41.1953125 C74.7578125 41.8553125 74.7578125 42.5153125 74.7578125 43.1953125 C75.4178125 43.1953125 76.0778125 43.1953125 76.7578125 43.1953125 C76.7578125 45.1753125 76.7578125 47.1553125 76.7578125 49.1953125 C77.4178125 49.1953125 78.0778125 49.1953125 78.7578125 49.1953125 C78.7578125 51.8353125 78.7578125 54.4753125 78.7578125 57.1953125 C79.4178125 57.1953125 80.0778125 57.1953125 80.7578125 57.1953125 C80.7578125 58.5153125 80.7578125 59.8353125 80.7578125 61.1953125 C81.4178125 61.1953125 82.0778125 61.1953125 82.7578125 61.1953125 C82.81600674 64.44523696 82.85147366 67.69502685 82.8828125 70.9453125 C82.89957031 71.86570312 82.91632813 72.78609375 82.93359375 73.734375 C82.94003906 74.62382812 82.94648437 75.51328125 82.953125 76.4296875 C82.96359863 77.24663086 82.97407227 78.06357422 82.98486328 78.90527344 C82.73611166 81.41418768 82.01481379 83.02926875 80.7578125 85.1953125 C80.0978125 85.1953125 79.4378125 85.1953125 78.7578125 85.1953125 C78.7578125 85.8553125 78.7578125 86.5153125 78.7578125 87.1953125 C44.1078125 87.1953125 9.4578125 87.1953125 -26.2421875 87.1953125 C-25.5403299 93.59902771 -25.5403299 93.59902771 -24.2421875 97.1953125 C-23.5821875 97.1953125 -22.9221875 97.1953125 -22.2421875 97.1953125 C-22.2421875 98.5153125 -22.2421875 99.8353125 -22.2421875 101.1953125 C-21.5821875 101.1953125 -20.9221875 101.1953125 -20.2421875 101.1953125 C-20.2421875 102.1853125 -20.2421875 103.1753125 -20.2421875 104.1953125 C-19.5821875 104.1953125 -18.9221875 104.1953125 -18.2421875 104.1953125 C-18.2421875 104.8553125 -18.2421875 105.5153125 -18.2421875 106.1953125 C-17.6234375 106.3396875 -17.0046875 106.4840625 -16.3671875 106.6328125 C-14.2421875 107.1953125 -14.2421875 107.1953125 -12.2421875 108.1953125 C-12.2421875 108.8553125 -12.2421875 109.5153125 -12.2421875 110.1953125 C-11.0975 110.3809375 -11.0975 110.3809375 -9.9296875 110.5703125 C-7.2421875 111.1953125 -7.2421875 111.1953125 -4.2421875 113.1953125 C-0.13664303 114.80170579 3.41693764 115.47342977 7.8125 115.609375 C8.92109375 115.64804688 10.0296875 115.68671875 11.171875 115.7265625 C12.31398438 115.7575 13.45609375 115.7884375 14.6328125 115.8203125 C15.798125 115.85898438 16.9634375 115.89765625 18.1640625 115.9375 C21.02849114 116.03141569 23.89291942 116.11709233 26.7578125 116.1953125 C26.7578125 115.5353125 26.7578125 114.8753125 26.7578125 114.1953125 C32.5078125 111.1953125 32.5078125 111.1953125 34.7578125 111.1953125 C34.7578125 110.5353125 34.7578125 109.8753125 34.7578125 109.1953125 C36.0778125 109.1953125 37.3978125 109.1953125 38.7578125 109.1953125 C38.7578125 108.5353125 38.7578125 107.8753125 38.7578125 107.1953125 C44.17319712 105.96454327 44.17319712 105.96454327 47.1328125 107.1328125 C47.6690625 107.4834375 48.2053125 107.8340625 48.7578125 108.1953125 C48.7578125 108.8553125 48.7578125 109.5153125 48.7578125 110.1953125 C50.7378125 110.6903125 50.7378125 110.6903125 52.7578125 111.1953125 C52.7578125 112.1853125 52.7578125 113.1753125 52.7578125 114.1953125 C53.4178125 114.1953125 54.0778125 114.1953125 54.7578125 114.1953125 C54.7578125 115.1853125 54.7578125 116.1753125 54.7578125 117.1953125 C55.4178125 117.1953125 56.0778125 117.1953125 56.7578125 117.1953125 C56.7578125 120.1653125 56.7578125 123.1353125 56.7578125 126.1953125 C56.0978125 126.1953125 55.4378125 126.1953125 54.7578125 126.1953125 C54.7578125 127.5153125 54.7578125 128.8353125 54.7578125 130.1953125 C54.0978125 130.1953125 53.4378125 130.1953125 52.7578125 130.1953125 C52.7578125 130.8553125 52.7578125 131.5153125 52.7578125 132.1953125 C52.0978125 132.1953125 51.4378125 132.1953125 50.7578125 132.1953125 C50.7578125 132.8553125 50.7578125 133.5153125 50.7578125 134.1953125 C49.4378125 134.1953125 48.1178125 134.1953125 46.7578125 134.1953125 C46.7578125 134.8553125 46.7578125 135.5153125 46.7578125 136.1953125 C46.0978125 136.1953125 45.4378125 136.1953125 44.7578125 136.1953125 C44.7578125 136.8553125 44.7578125 137.5153125 44.7578125 138.1953125 C43.4378125 138.1953125 42.1178125 138.1953125 40.7578125 138.1953125 C40.7578125 138.8553125 40.7578125 139.5153125 40.7578125 140.1953125 C39.4378125 140.1953125 38.1178125 140.1953125 36.7578125 140.1953125 C36.7578125 140.8553125 36.7578125 141.5153125 36.7578125 142.1953125 C34.7778125 142.1953125 32.7978125 142.1953125 30.7578125 142.1953125 C30.7578125 142.8553125 30.7578125 143.5153125 30.7578125 144.1953125 C29.4378125 144.1953125 28.1178125 144.1953125 26.7578125 144.1953125 C26.7578125 144.8553125 26.7578125 145.5153125 26.7578125 146.1953125 C16.1978125 146.1953125 5.6378125 146.1953125 -5.2421875 146.1953125 C-5.2421875 145.5353125 -5.2421875 144.8753125 -5.2421875 144.1953125 C-7.5521875 144.1953125 -9.8621875 144.1953125 -12.2421875 144.1953125 C-12.2421875 143.5353125 -12.2421875 142.8753125 -12.2421875 142.1953125 C-14.2221875 142.1953125 -16.2021875 142.1953125 -18.2421875 142.1953125 C-18.2421875 141.5353125 -18.2421875 140.8753125 -18.2421875 140.1953125 C-19.5621875 140.1953125 -20.8821875 140.1953125 -22.2421875 140.1953125 C-22.2421875 139.5353125 -22.2421875 138.8753125 -22.2421875 138.1953125 C-22.9021875 138.1953125 -23.5621875 138.1953125 -24.2421875 138.1953125 C-24.2421875 137.5353125 -24.2421875 136.8753125 -24.2421875 136.1953125 C-25.5621875 136.1953125 -26.8821875 136.1953125 -28.2421875 136.1953125 C-28.2421875 135.5353125 -28.2421875 134.8753125 -28.2421875 134.1953125 C-28.9021875 134.1953125 -29.5621875 134.1953125 -30.2421875 134.1953125 C-30.2421875 133.5353125 -30.2421875 132.8753125 -30.2421875 132.1953125 C-30.9021875 132.1953125 -31.5621875 132.1953125 -32.2421875 132.1953125 C-32.2421875 131.5353125 -32.2421875 130.8753125 -32.2421875 130.1953125 C-33.5621875 130.1953125 -34.8821875 130.1953125 -36.2421875 130.1953125 C-36.2421875 129.5353125 -36.2421875 128.8753125 -36.2421875 128.1953125 C-36.9021875 128.1953125 -37.5621875 128.1953125 -38.2421875 128.1953125 C-38.2421875 127.5353125 -38.2421875 126.8753125 -38.2421875 126.1953125 C-38.9021875 126.1953125 -39.5621875 126.1953125 -40.2421875 126.1953125 C-40.2421875 125.5353125 -40.2421875 124.8753125 -40.2421875 124.1953125 C-40.9021875 124.1953125 -41.5621875 124.1953125 -42.2421875 124.1953125 C-42.2421875 122.8753125 -42.2421875 121.5553125 -42.2421875 120.1953125 C-42.9021875 120.1953125 -43.5621875 120.1953125 -44.2421875 120.1953125 C-44.2421875 119.5353125 -44.2421875 118.8753125 -44.2421875 118.1953125 C-44.9021875 118.1953125 -45.5621875 118.1953125 -46.2421875 118.1953125 C-46.2421875 117.5353125 -46.2421875 116.8753125 -46.2421875 116.1953125 C-46.9021875 116.1953125 -47.5621875 116.1953125 -48.2421875 116.1953125 C-48.2421875 115.5353125 -48.2421875 114.8753125 -48.2421875 114.1953125 C-48.9021875 114.1953125 -49.5621875 114.1953125 -50.2421875 114.1953125 C-50.2421875 113.2053125 -50.2421875 112.2153125 -50.2421875 111.1953125 C-50.9021875 111.1953125 -51.5621875 111.1953125 -52.2421875 111.1953125 C-52.2421875 109.2153125 -52.2421875 107.2353125 -52.2421875 105.1953125 C-52.9021875 105.1953125 -53.5621875 105.1953125 -54.2421875 105.1953125 C-54.2421875 103.8753125 -54.2421875 102.5553125 -54.2421875 101.1953125 C-54.9021875 101.1953125 -55.5621875 101.1953125 -56.2421875 101.1953125 C-56.2421875 99.2153125 -56.2421875 97.2353125 -56.2421875 95.1953125 C-56.9021875 95.1953125 -57.5621875 95.1953125 -58.2421875 95.1953125 C-58.2421875 93.2153125 -58.2421875 91.2353125 -58.2421875 89.1953125 C-58.9021875 89.1953125 -59.5621875 89.1953125 -60.2421875 89.1953125 C-60.2421875 77.9753125 -60.2421875 66.7553125 -60.2421875 55.1953125 C-59.5821875 55.1953125 -58.9221875 55.1953125 -58.2421875 55.1953125 C-58.2421875 53.8753125 -58.2421875 52.5553125 -58.2421875 51.1953125 C-57.5821875 51.1953125 -56.9221875 51.1953125 -56.2421875 51.1953125 C-56.2421875 48.5553125 -56.2421875 45.9153125 -56.2421875 43.1953125 C-55.5821875 43.1953125 -54.9221875 43.1953125 -54.2421875 43.1953125 C-54.2421875 41.8753125 -54.2421875 40.5553125 -54.2421875 39.1953125 C-53.5821875 39.1953125 -52.9221875 39.1953125 -52.2421875 39.1953125 C-52.2421875 37.8753125 -52.2421875 36.5553125 -52.2421875 35.1953125 C-51.5821875 35.1953125 -50.9221875 35.1953125 -50.2421875 35.1953125 C-50.2421875 34.5353125 -50.2421875 33.8753125 -50.2421875 33.1953125 C-49.5821875 33.1953125 -48.9221875 33.1953125 -48.2421875 33.1953125 C-48.2421875 31.8753125 -48.2421875 30.5553125 -48.2421875 29.1953125 C-47.5821875 29.1953125 -46.9221875 29.1953125 -46.2421875 29.1953125 C-46.2421875 28.5353125 -46.2421875 27.8753125 -46.2421875 27.1953125 C-45.5821875 27.1953125 -44.9221875 27.1953125 -44.2421875 27.1953125 C-44.2421875 26.5353125 -44.2421875 25.8753125 -44.2421875 25.1953125 C-43.5821875 25.1953125 -42.9221875 25.1953125 -42.2421875 25.1953125 C-42.2421875 23.8753125 -42.2421875 22.5553125 -42.2421875 21.1953125 C-41.5821875 21.1953125 -40.9221875 21.1953125 -40.2421875 21.1953125 C-40.2421875 20.5353125 -40.2421875 19.8753125 -40.2421875 19.1953125 C-38.9221875 19.1953125 -37.6021875 19.1953125 -36.2421875 19.1953125 C-36.2421875 18.5353125 -36.2421875 17.8753125 -36.2421875 17.1953125 C-35.5821875 17.1953125 -34.9221875 17.1953125 -34.2421875 17.1953125 C-34.2421875 16.5353125 -34.2421875 15.8753125 -34.2421875 15.1953125 C-33.5821875 15.1953125 -32.9221875 15.1953125 -32.2421875 15.1953125 C-32.2421875 14.5353125 -32.2421875 13.8753125 -32.2421875 13.1953125 C-19.55695073 4.1953125 -19.55695073 4.1953125 -14.2421875 4.1953125 C-14.2421875 3.5353125 -14.2421875 2.8753125 -14.2421875 2.1953125 C-9.43086052 0.28269421 -5.11249423 -0.07183915 0 0 Z " fill="#050505" transform="translate(775.2421875,81.8046875)"/>
<path d="M0 0 C1.19625 0.00515625 2.3925 0.0103125 3.625 0.015625 C4.87023437 0.03625 6.11546875 0.056875 7.3984375 0.078125 C9.27789062 0.08585937 9.27789062 0.08585937 11.1953125 0.09375 C20.46485234 0.17383242 20.46485234 0.17383242 22.7734375 1.328125 C22.7734375 31.358125 22.7734375 61.388125 22.7734375 92.328125 C23.4334375 92.328125 24.0934375 92.328125 24.7734375 92.328125 C24.7734375 93.648125 24.7734375 94.968125 24.7734375 96.328125 C25.4334375 96.328125 26.0934375 96.328125 26.7734375 96.328125 C26.7734375 97.978125 26.7734375 99.628125 26.7734375 101.328125 C27.4334375 101.328125 28.0934375 101.328125 28.7734375 101.328125 C28.7734375 102.318125 28.7734375 103.308125 28.7734375 104.328125 C29.4334375 104.328125 30.0934375 104.328125 30.7734375 104.328125 C30.7734375 104.988125 30.7734375 105.648125 30.7734375 106.328125 C31.4334375 106.328125 32.0934375 106.328125 32.7734375 106.328125 C32.7734375 106.988125 32.7734375 107.648125 32.7734375 108.328125 C33.4334375 108.328125 34.0934375 108.328125 34.7734375 108.328125 C34.7734375 108.988125 34.7734375 109.648125 34.7734375 110.328125 C44.31720459 114.54747466 54.58198092 113.61740215 64.7734375 113.328125 C64.7734375 112.668125 64.7734375 112.008125 64.7734375 111.328125 C66.0934375 111.328125 67.4134375 111.328125 68.7734375 111.328125 C68.7734375 110.338125 68.7734375 109.348125 68.7734375 108.328125 C69.4334375 108.328125 70.0934375 108.328125 70.7734375 108.328125 C70.7734375 107.668125 70.7734375 107.008125 70.7734375 106.328125 C71.4334375 106.328125 72.0934375 106.328125 72.7734375 106.328125 C72.7734375 105.668125 72.7734375 105.008125 72.7734375 104.328125 C73.4334375 104.328125 74.0934375 104.328125 74.7734375 104.328125 C74.7734375 103.008125 74.7734375 101.688125 74.7734375 100.328125 C75.4334375 100.328125 76.0934375 100.328125 76.7734375 100.328125 C76.7734375 99.668125 76.7734375 99.008125 76.7734375 98.328125 C77.4334375 98.328125 78.0934375 98.328125 78.7734375 98.328125 C78.7734375 97.008125 78.7734375 95.688125 78.7734375 94.328125 C79.4334375 94.328125 80.0934375 94.328125 80.7734375 94.328125 C80.7734375 63.638125 80.7734375 32.948125 80.7734375 1.328125 C86.3270927 -0.0602888 91.69547367 0.14382173 97.3984375 0.140625 C99.13480469 0.12225586 99.13480469 0.12225586 100.90625 0.10351562 C102.56140625 0.10061523 102.56140625 0.10061523 104.25 0.09765625 C105.26143066 0.09354736 106.27286133 0.08943848 107.31494141 0.08520508 C109.7734375 0.328125 109.7734375 0.328125 111.7734375 2.328125 C111.96677324 5.01666469 112.0357008 7.601766 112.01635742 10.29101562 C112.01825577 11.11405182 112.02015411 11.93708801 112.02210999 12.7850647 C112.02582741 15.51826375 112.01509281 18.25119935 112.00390625 20.984375 C112.00271397 22.88570118 112.00226139 24.78702796 112.0025177 26.68835449 C112.00095072 30.68322412 111.99265019 34.67800442 111.97924805 38.67285156 C111.96235007 43.77239672 111.95843107 48.87184279 111.95919323 53.97141266 C111.95891991 57.90414359 111.95341132 61.83685322 111.94619179 65.76957703 C111.94302619 67.64808491 111.94104268 69.52659519 111.94029808 71.40510559 C111.91057897 107.23168594 111.91057897 107.23168594 100.7734375 121.328125 C100.1134375 121.328125 99.4534375 121.328125 98.7734375 121.328125 C98.7734375 122.648125 98.7734375 123.968125 98.7734375 125.328125 C98.1134375 125.328125 97.4534375 125.328125 96.7734375 125.328125 C96.7734375 125.988125 96.7734375 126.648125 96.7734375 127.328125 C96.1134375 127.328125 95.4534375 127.328125 94.7734375 127.328125 C94.7734375 127.988125 94.7734375 128.648125 94.7734375 129.328125 C94.1134375 129.328125 93.4534375 129.328125 92.7734375 129.328125 C92.7734375 129.988125 92.7734375 130.648125 92.7734375 131.328125 C92.1134375 131.328125 91.4534375 131.328125 90.7734375 131.328125 C90.7734375 131.988125 90.7734375 132.648125 90.7734375 133.328125 C89.4534375 133.328125 88.1334375 133.328125 86.7734375 133.328125 C86.7734375 133.988125 86.7734375 134.648125 86.7734375 135.328125 C86.1134375 135.328125 85.4534375 135.328125 84.7734375 135.328125 C84.7734375 135.988125 84.7734375 136.648125 84.7734375 137.328125 C83.4534375 137.328125 82.1334375 137.328125 80.7734375 137.328125 C80.7734375 137.988125 80.7734375 138.648125 80.7734375 139.328125 C79.4534375 139.328125 78.1334375 139.328125 76.7734375 139.328125 C76.7734375 139.988125 76.7734375 140.648125 76.7734375 141.328125 C74.7934375 141.328125 72.8134375 141.328125 70.7734375 141.328125 C70.7734375 141.988125 70.7734375 142.648125 70.7734375 143.328125 C69.4534375 143.328125 68.1334375 143.328125 66.7734375 143.328125 C66.7734375 143.988125 66.7734375 144.648125 66.7734375 145.328125 C56.8734375 145.328125 46.9734375 145.328125 36.7734375 145.328125 C36.7734375 144.668125 36.7734375 144.008125 36.7734375 143.328125 C34.7934375 143.328125 32.8134375 143.328125 30.7734375 143.328125 C30.7734375 142.668125 30.7734375 142.008125 30.7734375 141.328125 C28.7934375 141.328125 26.8134375 141.328125 24.7734375 141.328125 C24.7734375 140.668125 24.7734375 140.008125 24.7734375 139.328125 C23.4534375 139.328125 22.1334375 139.328125 20.7734375 139.328125 C20.7734375 138.668125 20.7734375 138.008125 20.7734375 137.328125 C20.1134375 137.328125 19.4534375 137.328125 18.7734375 137.328125 C18.7734375 136.668125 18.7734375 136.008125 18.7734375 135.328125 C17.4534375 135.328125 16.1334375 135.328125 14.7734375 135.328125 C14.7734375 134.668125 14.7734375 134.008125 14.7734375 133.328125 C14.1134375 133.328125 13.4534375 133.328125 12.7734375 133.328125 C12.7734375 132.668125 12.7734375 132.008125 12.7734375 131.328125 C11.7834375 131.328125 10.7934375 131.328125 9.7734375 131.328125 C9.7734375 130.668125 9.7734375 130.008125 9.7734375 129.328125 C9.1134375 129.328125 8.4534375 129.328125 7.7734375 129.328125 C7.4434375 128.008125 7.1134375 126.688125 6.7734375 125.328125 C6.1134375 125.328125 5.4534375 125.328125 4.7734375 125.328125 C1.7734375 121.86658654 1.7734375 121.86658654 1.7734375 119.328125 C1.1134375 119.328125 0.4534375 119.328125 -0.2265625 119.328125 C-0.2265625 118.668125 -0.2265625 118.008125 -0.2265625 117.328125 C-0.8865625 117.328125 -1.5465625 117.328125 -2.2265625 117.328125 C-3.72477309 113.95715117 -4.2265625 112.12370381 -4.2265625 108.328125 C-4.8865625 108.328125 -5.5465625 108.328125 -6.2265625 108.328125 C-6.2265625 106.348125 -6.2265625 104.368125 -6.2265625 102.328125 C-6.8865625 102.328125 -7.5465625 102.328125 -8.2265625 102.328125 C-9.91232151 96.44913673 -10.52385228 91.2129449 -10.51708984 85.11401367 C-10.52380707 84.23008942 -10.53052429 83.34616516 -10.53744507 82.43545532 C-10.55631168 79.53894306 -10.56034213 76.64266346 -10.5625 73.74609375 C-10.56893098 71.72447109 -10.57565956 69.70284936 -10.58267212 67.68122864 C-10.59461291 63.45746702 -10.59835575 59.23378706 -10.59716797 55.01000977 C-10.59696385 49.59139295 -10.62437614 44.17329512 -10.65871239 38.75480175 C-10.68090505 34.5864469 -10.68500802 30.41821907 -10.68394852 26.24981117 C-10.68631176 24.2510631 -10.69517577 22.25231191 -10.71061325 20.25362206 C-10.73013822 17.46712557 -10.72449099 14.68177735 -10.71240234 11.89526367 C-10.72364136 11.06770065 -10.73488037 10.24013763 -10.74645996 9.38749695 C-10.68494297 3.82718777 -10.68494297 3.82718777 -8.37750244 1.31495667 C-5.47717983 -0.01568495 -3.18695121 -0.02713892 0 0 Z " fill="#050505" transform="translate(240.2265625,82.671875)"/>
<path d="M0 0 C8.58 0 17.16 0 26 0 C26 0.66 26 1.32 26 2 C26.99 2 27.98 2 29 2 C30.25133481 4.50266962 30.12306118 6.18493776 30.12025452 8.98599243 C30.12162918 10.04051102 30.12300385 11.0950296 30.12442017 12.1815033 C30.11902725 13.92398094 30.11902725 13.92398094 30.11352539 15.70166016 C30.11367142 16.92114853 30.11381744 18.1406369 30.1139679 19.39707947 C30.11338955 22.74605181 30.10836546 26.09496293 30.10139394 29.44392443 C30.09515348 32.9419744 30.09455605 36.44002515 30.09336853 39.93807983 C30.09025726 46.56434861 30.08204662 53.19060094 30.07201904 59.81686246 C30.06085157 67.35968929 30.05534585 74.9025169 30.05032361 82.44534993 C30.03986384 97.96357616 30.02226834 113.48178596 30 129 C30.66 129 31.32 129 32 129 C32.24234375 129.65226563 32.4846875 130.30453125 32.734375 130.9765625 C36.14725807 139.87631142 40.26020153 147.49897628 49.0078125 152.04296875 C50.64910509 152.75065159 52.32225906 153.383687 54 154 C54 154.66 54 155.32 54 156 C69.51 156 85.02 156 101 156 C101 156.66 101 157.32 101 158 C101.66 158 102.32 158 103 158 C103 166.58 103 175.16 103 184 C102.34 184 101.68 184 101 184 C101 184.66 101 185.32 101 186 C82.85 186 64.7 186 46 186 C46 185.34 46 184.68 46 184 C44.02 184 42.04 184 40 184 C40 183.34 40 182.68 40 182 C38.68 182 37.36 182 36 182 C36 181.34 36 180.68 36 180 C34.68 180 33.36 180 32 180 C32 179.34 32 178.68 32 178 C30.68 178 29.36 178 28 178 C28 177.34 28 176.68 28 176 C27.34 176 26.68 176 26 176 C26 175.34 26 174.68 26 174 C25.34 174 24.68 174 24 174 C24 173.34 24 172.68 24 172 C23.34 172 22.68 172 22 172 C22 171.34 22 170.68 22 170 C21.34 170 20.68 170 20 170 C20 169.34 20 168.68 20 168 C18.68 168 17.36 168 16 168 C16 167.34 16 166.68 16 166 C15.34 166 14.68 166 14 166 C14 164.68 14 163.36 14 162 C13.34 162 12.68 162 12 162 C12 161.34 12 160.68 12 160 C11.34 160 10.68 160 10 160 C10 159.34 10 158.68 10 158 C9.34 158 8.68 158 8 158 C8 156.35 8 154.7 8 153 C7.34 153 6.68 153 6 153 C6 152.34 6 151.68 6 151 C5.34 151 4.68 151 4 151 C4 149.02 4 147.04 4 145 C3.34 145 2.68 145 2 145 C2 143.68 2 142.36 2 141 C1.34 141 0.68 141 0 141 C0 137.7 0 134.4 0 131 C-0.66 131 -1.32 131 -2 131 C-2 88.43 -2 45.86 -2 2 C-1.34 2 -0.68 2 0 2 C0 1.34 0 0.68 0 0 Z " fill="#060606" transform="translate(95,40)"/>
<path d="M0 0 C4.25414623 -0.02465622 8.50825498 -0.04283899 12.76245117 -0.05493164 C14.21070073 -0.05997101 15.65894517 -0.06680253 17.10717773 -0.07543945 C19.18474588 -0.08752247 21.26224697 -0.09323211 23.33984375 -0.09765625 C24.59144287 -0.10289307 25.84304199 -0.10812988 27.13256836 -0.11352539 C30 0 30 0 31 1 C31.08748207 2.92667507 31.10697334 4.85651861 31.09765625 6.78515625 C31.09282227 8.53989258 31.09282227 8.53989258 31.08789062 10.33007812 C31.07532227 12.17762695 31.07532227 12.17762695 31.0625 14.0625 C31.05798828 15.29806641 31.05347656 16.53363281 31.04882812 17.80664062 C31.03699608 20.87114117 31.02051173 23.93554721 31 27 C30.01 27 29.02 27 28 27 C28 27.66 28 28.32 28 29 C27.34 29 26.68 29 26 29 C26 29.66 26 30.32 26 31 C24.91460938 31.06058594 23.82921875 31.12117188 22.7109375 31.18359375 C21.26561514 31.26806064 19.82030318 31.35270551 18.375 31.4375 C17.66214844 31.47681641 16.94929687 31.51613281 16.21484375 31.55664062 C12.08196318 31.80309681 8.07730976 32.23470053 4 33 C4 33.66 4 34.32 4 35 C2.68 35 1.36 35 0 35 C0 35.66 0 36.32 0 37 C-0.66 37 -1.32 37 -2 37 C-2 37.66 -2 38.32 -2 39 C-2.66 39 -3.32 39 -4 39 C-4 40.32 -4 41.64 -4 43 C-4.66 43 -5.32 43 -6 43 C-6 43.66 -6 44.32 -6 45 C-6.66 45 -7.32 45 -8 45 C-8 77.01 -8 109.02 -8 142 C-8.66 142 -9.32 142 -10 142 C-10 142.66 -10 143.32 -10 144 C-19.9 144 -29.8 144 -40 144 C-40 111.99 -40 79.98 -40 47 C-39.34 47 -38.68 47 -38 47 C-38 43.04 -38 39.08 -38 35 C-37.34 35 -36.68 35 -36 35 C-36 33.68 -36 32.36 -36 31 C-35.34 31 -34.68 31 -34 31 C-34 29.68 -34 28.36 -34 27 C-33.34 27 -32.68 27 -32 27 C-32 25.68 -32 24.36 -32 23 C-31.34 23 -30.68 23 -30 23 C-30 22.34 -30 21.68 -30 21 C-29.34 21 -28.68 21 -28 21 C-28 20.34 -28 19.68 -28 19 C-27.34 19 -26.68 19 -26 19 C-26 18.34 -26 17.68 -26 17 C-25.34 17 -24.68 17 -24 17 C-24 16.34 -24 15.68 -24 15 C-23.34 15 -22.68 15 -22 15 C-22 14.34 -22 13.68 -22 13 C-21.34 13 -20.68 13 -20 13 C-20 12.34 -20 11.68 -20 11 C-18.02 10.34 -16.04 9.68 -14 9 C-14 8.34 -14 7.68 -14 7 C-8.25 4 -8.25 4 -6 4 C-6 3.34 -6 2.68 -6 2 C-4.02 2 -2.04 2 0 2 C0 1.34 0 0.68 0 0 Z " fill="#080808" transform="translate(933,82)"/>
<path d="M0 0 C4.43715855 -0.14483042 8.87371277 -0.23391752 13.3125 -0.3125 C14.57513672 -0.35439453 15.83777344 -0.39628906 17.13867188 -0.43945312 C18.34716797 -0.45556641 19.55566406 -0.47167969 20.80078125 -0.48828125 C21.91622314 -0.51446533 23.03166504 -0.54064941 24.1809082 -0.56762695 C27 0 27 0 28.65322495 2.17841816 C30.14655121 5.30703437 30.37260869 7.26520168 30.36749268 10.7129364 C30.37584641 12.4227771 30.37584641 12.4227771 30.3843689 14.16716003 C30.37515411 15.40839127 30.36593933 16.6496225 30.35644531 17.9284668 C30.35951187 19.89984116 30.35951187 19.89984116 30.36264038 21.91104126 C30.36776535 25.50798325 30.35425884 29.10463816 30.33711338 32.70153403 C30.32206126 36.46555101 30.32325108 40.22956453 30.32244873 43.99360657 C30.31875904 50.31097304 30.30380408 56.62823066 30.28125 62.94555664 C30.2523387 71.06017003 30.24202277 79.17469597 30.2375679 87.28935528 C30.23359163 94.26234836 30.22109226 101.23532236 30.20722103 108.20830178 C30.2031196 110.45217295 30.2001953 112.69604344 30.19742584 114.93991661 C30.19163298 119.11321802 30.17696171 123.28644141 30.16113281 127.4597168 C30.16001495 128.70702072 30.15889709 129.95432465 30.15774536 131.23942566 C30.15203522 132.37085999 30.14632507 133.50229431 30.14044189 134.66801453 C30.13746723 135.65521327 30.13449257 136.64241201 30.13142776 137.65952587 C30 140 30 140 29 142 C28.34 142 27.68 142 27 142 C27 142.66 27 143.32 27 144 C18.09 144 9.18 144 0 144 C0 143.34 0 142.68 0 142 C-0.66 142 -1.32 142 -2 142 C-2 95.8 -2 49.6 -2 2 C-1.34 2 -0.68 2 0 2 C0 1.34 0 0.68 0 0 Z " fill="#050505" transform="translate(648,82)"/>
<path d="M0 0 C5.28 0 10.56 0 16 0 C16 0.66 16 1.32 16 2 C17.98 2 19.96 2 22 2 C22 2.66 22 3.32 22 4 C23.98 4 25.96 4 28 4 C28 4.66 28 5.32 28 6 C28.66 6 29.32 6 30 6 C30 6.66 30 7.32 30 8 C31.65 8 33.3 8 35 8 C35 8.66 35 9.32 35 10 C35.66 10 36.32 10 37 10 C37 10.66 37 11.32 37 12 C37.66 12 38.32 12 39 12 C39 12.66 39 13.32 39 14 C39.66 14 40.32 14 41 14 C41 15.32 41 16.64 41 18 C41.66 18 42.32 18 43 18 C43 18.66 43 19.32 43 20 C43.66 20 44.32 20 45 20 C45 21.98 45 23.96 45 26 C20.91 26 -3.18 26 -28 26 C-28 24.68 -28 23.36 -28 22 C-27.34 22 -26.68 22 -26 22 C-26 20.68 -26 19.36 -26 18 C-25.34 18 -24.68 18 -24 18 C-24 16.68 -24 15.36 -24 14 C-23.34 14 -22.68 14 -22 14 C-22 13.34 -22 12.68 -22 12 C-20.68 12 -19.36 12 -18 12 C-18 11.34 -18 10.68 -18 10 C-17.34 10 -16.68 10 -16 10 C-16 9.34 -16 8.68 -16 8 C-15.34 8 -14.68 8 -14 8 C-14 7.34 -14 6.68 -14 6 C-13.34 6 -12.68 6 -12 6 C-12 5.34 -12 4.68 -12 4 C-9.36 4 -6.72 4 -4 4 C-4 3.34 -4 2.68 -4 2 C-2.68 2 -1.36 2 0 2 C0 1.34 0 0.68 0 0 Z " fill="#F7F7F7" transform="translate(1048,113)"/>
<path d="M0 0 C0 0.66 0 1.32 0 2 C2.64 2 5.28 2 8 2 C8 2.66 8 3.32 8 4 C9.32 4 10.64 4 12 4 C12 4.66 12 5.32 12 6 C13.32 6 14.64 6 16 6 C16 6.66 16 7.32 16 8 C17.32 8 18.64 8 20 8 C20 8.66 20 9.32 20 10 C20.66 10 21.32 10 22 10 C22 10.66 22 11.32 22 12 C22.66 12 23.32 12 24 12 C24 12.66 24 13.32 24 14 C24.66 14 25.32 14 26 14 C26 15.32 26 16.64 26 18 C26.66 18 27.32 18 28 18 C28 18.66 28 19.32 28 20 C28.66 20 29.32 20 30 20 C30 21.98 30 23.96 30 26 C6.24 26 -17.52 26 -42 26 C-42 25.34 -42 24.68 -42 24 C-41.34 24 -40.68 24 -40 24 C-40 22.68 -40 21.36 -40 20 C-39.34 20 -38.68 20 -38 20 C-37.67 18.02 -37.34 16.04 -37 14 C-36.34 14 -35.68 14 -35 14 C-35 13.34 -35 12.68 -35 12 C-34.34 12 -33.68 12 -33 12 C-33 11.34 -33 10.68 -33 10 C-32.34 10 -31.68 10 -31 10 C-31 9.34 -31 8.68 -31 8 C-30.34 8 -29.68 8 -29 8 C-29 7.34 -29 6.68 -29 6 C-27.68 6 -26.36 6 -25 6 C-25 5.34 -25 4.68 -25 4 C-24.01 4 -23.02 4 -22 4 C-22 3.34 -22 2.68 -22 2 C-14.66258031 -0.3479743 -7.65606218 -0.19355213 0 0 Z " fill="#F7F7F7" transform="translate(792,113)"/>
<path d="M0 0 C4.62 0 9.24 0 14 0 C14 0.66 14 1.32 14 2 C15.32 2 16.64 2 18 2 C18 2.66 18 3.32 18 4 C18.66 4 19.32 4 20 4 C20 4.66 20 5.32 20 6 C20.66 6 21.32 6 22 6 C23.823321 12.15370839 24.2361959 17.59646678 24 24 C23.34 24 22.68 24 22 24 C22 25.32 22 26.64 22 28 C21.34 28 20.68 28 20 28 C20 28.66 20 29.32 20 30 C13.60278357 33.8624703 8.46085482 34.98796708 1 34 C-2.6875 32.5 -2.6875 32.5 -5 31 C-5 30.01 -5 29.02 -5 28 C-5.66 28 -6.32 28 -7 28 C-7 27.34 -7 26.68 -7 26 C-7.66 26 -8.32 26 -9 26 C-9 25.34 -9 24.68 -9 24 C-9.66 24 -10.32 24 -11 24 C-11 19.38 -11 14.76 -11 10 C-10.34 10 -9.68 10 -9 10 C-9 9.34 -9 8.68 -9 8 C-8.34 8 -7.68 8 -7 8 C-7 7.34 -7 6.68 -7 6 C-6.34 6 -5.68 6 -5 6 C-5 5.34 -5 4.68 -5 4 C-4.34 4 -3.68 4 -3 4 C-3 3.34 -3 2.68 -3 2 C-2.01 2 -1.02 2 0 2 C0 1.34 0 0.68 0 0 Z " fill="#090909" transform="translate(655,36)"/>
<path d="M0 0 C1.19625 0.00515625 2.3925 0.0103125 3.625 0.015625 C4.87023437 0.03625 6.11546875 0.056875 7.3984375 0.078125 C9.27789062 0.08585937 9.27789062 0.08585937 11.1953125 0.09375 C20.46485234 0.17383242 20.46485234 0.17383242 22.7734375 1.328125 C22.7734375 31.358125 22.7734375 61.388125 22.7734375 92.328125 C23.4334375 92.328125 24.0934375 92.328125 24.7734375 92.328125 C24.7734375 93.648125 24.7734375 94.968125 24.7734375 96.328125 C25.4334375 96.328125 26.0934375 96.328125 26.7734375 96.328125 C26.7734375 97.978125 26.7734375 99.628125 26.7734375 101.328125 C27.4334375 101.328125 28.0934375 101.328125 28.7734375 101.328125 C28.2784375 102.813125 28.2784375 102.813125 27.7734375 104.328125 C23.79688728 100.88178148 22.09057602 97.62560881 21.58127975 92.33014297 C21.48826233 89.98274691 21.46070887 87.64269375 21.45458984 85.29345703 C21.44454422 84.40500595 21.4344986 83.51655487 21.42414856 82.60118103 C21.39338343 79.67943946 21.37629995 76.75778925 21.359375 73.8359375 C21.34065799 71.80426247 21.32108418 69.77259516 21.3006897 67.74093628 C21.24941885 62.4046688 21.20976605 57.06837614 21.17254639 51.73199463 C21.13247514 46.28220413 21.08139702 40.83251795 21.03125 35.3828125 C20.93455037 24.69798276 20.85114418 14.01310977 20.7734375 3.328125 C6.9134375 2.833125 6.9134375 2.833125 -7.2265625 2.328125 C-7.2265625 34.008125 -7.2265625 65.688125 -7.2265625 98.328125 C-6.5665625 98.328125 -5.9065625 98.328125 -5.2265625 98.328125 C-4.8965625 101.628125 -4.5665625 104.928125 -4.2265625 108.328125 C-4.8865625 108.328125 -5.5465625 108.328125 -6.2265625 108.328125 C-6.2265625 106.348125 -6.2265625 104.368125 -6.2265625 102.328125 C-6.8865625 102.328125 -7.5465625 102.328125 -8.2265625 102.328125 C-9.91232151 96.44913673 -10.52385228 91.2129449 -10.51708984 85.11401367 C-10.52380707 84.23008942 -10.53052429 83.34616516 -10.53744507 82.43545532 C-10.55631168 79.53894306 -10.56034213 76.64266346 -10.5625 73.74609375 C-10.56893098 71.72447109 -10.57565956 69.70284936 -10.58267212 67.68122864 C-10.59461291 63.45746702 -10.59835575 59.23378706 -10.59716797 55.01000977 C-10.59696385 49.59139295 -10.62437614 44.17329512 -10.65871239 38.75480175 C-10.68090505 34.5864469 -10.68500802 30.41821907 -10.68394852 26.24981117 C-10.68631176 24.2510631 -10.69517577 22.25231191 -10.71061325 20.25362206 C-10.73013822 17.46712557 -10.72449099 14.68177735 -10.71240234 11.89526367 C-10.72364136 11.06770065 -10.73488037 10.24013763 -10.74645996 9.38749695 C-10.68494297 3.82718777 -10.68494297 3.82718777 -8.37750244 1.31495667 C-5.47717983 -0.01568495 -3.18695121 -0.02713892 0 0 Z " fill="#505050" transform="translate(240.2265625,82.671875)"/>
<path d="M0 0 C1.32 0.33 2.64 0.66 4 1 C4 3.97 4 6.94 4 10 C4.66 10 5.32 10 6 10 C6 52.57 6 95.14 6 139 C5.34 139 4.68 139 4 139 C4 139.66 4 140.32 4 141 C3.34 141 2.68 141 2 141 C2.00276538 139.94643877 2.00276538 139.94643877 2.00558662 138.87159348 C2.04973998 121.78757331 2.08284406 104.70356763 2.10362434 87.61950302 C2.11394043 79.3578054 2.1280071 71.09614585 2.15087891 62.83447266 C2.17080262 55.63427113 2.18371402 48.43409717 2.18817699 41.23386884 C2.1907861 37.4207984 2.19692553 33.60780684 2.21146011 29.79476166 C2.22502794 26.20628786 2.22922427 22.61792549 2.22621536 19.02942848 C2.22702851 17.0835643 2.23779435 15.13771227 2.24884033 13.19187927 C2.246091 12.03364151 2.24334167 10.87540375 2.24050903 9.68206787 C2.24235262 8.67546993 2.24419621 7.66887199 2.24609566 6.63177109 C1.99446995 3.94086107 1.37758631 2.30053262 0 0 Z " fill="#C4C4C4" transform="translate(675,83)"/>
<path d="M0 0 C34.65 0 69.3 0 105 0 C105 0.99 105 1.98 105 3 C70.35 3.33 35.7 3.66 0 4 C0 2.68 0 1.36 0 0 Z " fill="#B0B0B0" transform="translate(1018,169)"/>
<path d="M0 0 C8.91 0 17.82 0 27 0 C27 0.33 27 0.66 27 1 C19.08 1 11.16 1 3 1 C3 1.66 3 2.32 3 3 C2.34 3 1.68 3 1 3 C0.67 48.87 0.34 94.74 0 142 C-0.66 142 -1.32 142 -2 142 C-2 95.8 -2 49.6 -2 2 C-1.34 2 -0.68 2 0 2 C0 1.34 0 0.68 0 0 Z " fill="#636363" transform="translate(648,82)"/>
<path d="M0 0 C33.99 0 67.98 0 103 0 C103 0.99 103 1.98 103 3 C69.34 3 35.68 3 1 3 C1.33 4.65 1.66 6.3 2 8 C1.34 7.67 0.68 7.34 0 7 C0 4.69 0 2.38 0 0 Z " fill="#B8B8B8" transform="translate(749,169)"/>
<path d="M0 0 C0.33 0.66 0.66 1.32 1 2 C1.66 2 2.32 2 3 2 C3 2.66 3 3.32 3 4 C3.66 4 4.32 4 5 4 C5 5.32 5 6.64 5 8 C5.66 8 6.32 8 7 8 C7 38.69 7 69.38 7 101 C6.01 101 5.02 101 4 101 C4 69.65 4 38.3 4 6 C3.34 6 2.68 6 2 6 C2 5.34 2 4.68 2 4 C1.34 4 0.68 4 0 4 C0 2.68 0 1.36 0 0 Z " fill="#E1E1E1" transform="translate(565,123)"/>
<path d="M0 0 C0.66 0 1.32 0 2 0 C2 1.32 2 2.64 2 4 C2.66 4 3.32 4 4 4 C4 4.66 4 5.32 4 6 C4.66 6 5.32 6 6 6 C6 7.32 6 8.64 6 10 C6.66 10 7.32 10 8 10 C8 40.03 8 70.06 8 101 C7.34 101 6.68 101 6 101 C5.00775394 96.05133286 4.86368547 91.35235478 4.88647461 86.33251953 C4.88632858 85.48308273 4.88618256 84.63364594 4.8860321 83.75846863 C4.88672563 80.96655677 4.89449174 78.17471263 4.90234375 75.3828125 C4.90420992 73.44082679 4.90563288 71.4988406 4.90663147 69.55685425 C4.91044098 64.45726206 4.92025786 59.35769856 4.93133545 54.25811768 C4.94158327 49.04968656 4.94613631 43.8412508 4.95117188 38.6328125 C4.96188157 28.42186243 4.97893914 18.2109336 5 8 C4.34 8 3.68 8 3 8 C3 7.34 3 6.68 3 6 C2.34 6 1.68 6 1 6 C0.67 4.02 0.34 2.04 0 0 Z " fill="#E2E2E2" transform="translate(475,123)"/>
<path d="M0 0 C0.66 0 1.32 0 2 0 C1.67 1.98 1.34 3.96 1 6 C0.34 6 -0.32 6 -1 6 C-1.33 36.69 -1.66 67.38 -2 99 C-2.66 99 -3.32 99 -4 99 C-4 68.97 -4 38.94 -4 8 C-3.34 8 -2.68 8 -2 8 C-2 6.68 -2 5.36 -2 4 C-1.34 4 -0.68 4 0 4 C0 2.68 0 1.36 0 0 Z " fill="#959595" transform="translate(428,125)"/>
<path d="M0 0 C1.32 0.33 2.64 0.66 4 1 C4 32.35 4 63.7 4 96 C3.34 96 2.68 96 2 96 C1.505 96.99 1.505 96.99 1 98 C1.00222061 96.80174591 1.00444122 95.60349182 1.00672913 94.368927 C1.02696816 83.09698386 1.04197583 71.82504439 1.05181217 60.55308723 C1.05703905 54.75755178 1.06413319 48.96203094 1.07543945 43.16650391 C1.08627521 37.57741018 1.09227831 31.98833056 1.09487724 26.39922714 C1.09673024 24.2629054 1.10034848 22.12658447 1.10573006 19.99026871 C1.1129496 17.00667887 1.11399055 14.0231479 1.11352539 11.03955078 C1.11712067 10.14907043 1.12071594 9.25859009 1.12442017 8.34112549 C1.24760743 4.03496529 1.24760743 4.03496529 0 0 Z " fill="#8B8B8B" transform="translate(350,83)"/>
<path d="M0 0 C1.10794922 0.00410889 2.21589844 0.00821777 3.35742188 0.01245117 C5.16146484 0.01535156 5.16146484 0.01535156 7.00195312 0.01831055 C8.26394531 0.03055664 9.5259375 0.04280273 10.82617188 0.05541992 C12.08816406 0.05606445 13.35015625 0.05670898 14.65039062 0.05737305 C24.0457082 0.10268808 24.0457082 0.10268808 26.32617188 1.24291992 C26.32617188 31.27291992 26.32617188 61.30291992 26.32617188 92.24291992 C26.98617188 92.24291992 27.64617187 92.24291992 28.32617188 92.24291992 C28.32617188 93.56291992 28.32617188 94.88291992 28.32617188 96.24291992 C28.98617187 96.24291992 29.64617187 96.24291992 30.32617188 96.24291992 C30.32617188 97.89291992 30.32617188 99.54291992 30.32617188 101.24291992 C30.98617187 101.24291992 31.64617187 101.24291992 32.32617188 101.24291992 C31.83117187 102.72791992 31.83117187 102.72791992 31.32617188 104.24291992 C27.34962166 100.7965764 25.64331039 97.54040373 25.13401413 92.2449379 C25.04099671 89.89754183 25.01344325 87.55748867 25.00732422 85.20825195 C24.99727859 84.31980087 24.98723297 83.43134979 24.97688293 82.51597595 C24.9461178 79.59423438 24.92903433 76.67258417 24.91210938 73.75073242 C24.89339237 71.71905739 24.87381856 69.68739009 24.85342407 67.6557312 C24.80215322 62.31946373 24.76250042 56.98317106 24.72528076 51.64678955 C24.68520952 46.19699905 24.6341314 40.74731288 24.58398438 35.29760742 C24.48728474 24.61277768 24.40387856 13.92790469 24.32617188 3.24291992 C14.75617188 2.91291992 5.18617188 2.58291992 -4.67382812 2.24291992 C-2.67382812 0.24291992 -2.67382812 0.24291992 0 0 Z " fill="#616161" transform="translate(236.673828125,82.757080078125)"/>
<path d="M0 0 C0.33 1.32 0.66 2.64 1 4 C0.34 4 -0.32 4 -1 4 C-1 5.32 -1 6.64 -1 8 C-1.66 8 -2.32 8 -3 8 C-3 8.66 -3 9.32 -3 10 C20.76 10 44.52 10 69 10 C69 9.34 69 8.68 69 8 C69.66 8 70.32 8 71 8 C71 9.32 71 10.64 71 12 C46.25 12 21.5 12 -4 12 C-4 10.02 -4 8.04 -4 6 C-3.34 6 -2.68 6 -2 6 C-2 4.68 -2 3.36 -2 2 C-1.34 2 -0.68 2 0 2 C0 1.34 0 0.68 0 0 Z " fill="#6B6B6B" transform="translate(753,129)"/>
<path d="M0 0 C1.98 0.66 3.96 1.32 6 2 C6 2.66 6 3.32 6 4 C9.03802167 4.87550021 11.7949886 5.1483632 14.95214844 5.20532227 C16.42322052 5.2352401 16.42322052 5.2352401 17.92401123 5.26576233 C18.97518127 5.28247482 20.02635132 5.29918732 21.109375 5.31640625 C22.19132141 5.33718735 23.27326782 5.35796844 24.38800049 5.37937927 C27.84193613 5.44472931 31.29594737 5.50369229 34.75 5.5625 C37.09245571 5.60569904 39.4349038 5.64931378 41.77734375 5.69335938 C47.5181494 5.80039583 53.25903015 5.90218926 59 6 C59 6.66 59 7.32 59 8 C59.66 8 60.32 8 61 8 C61 8.99 61 9.98 61 11 C60.34 11 59.68 11 59 11 C59 10.34 59 9.68 59 9 C43.49 9 27.98 9 12 9 C12 8.34 12 7.68 12 7 C11.484375 6.9175 10.96875 6.835 10.4375 6.75 C6.91478666 5.6660882 4.13330608 3.95092643 1 2 C0.67 1.34 0.34 0.68 0 0 Z " fill="#888888" transform="translate(137,187)"/>
<path d="M0 0 C0.66 0 1.32 0 2 0 C2 0.66 2 1.32 2 2 C26.09 2 50.18 2 75 2 C75 1.34 75 0.68 75 0 C75.66 0 76.32 0 77 0 C77 1.32 77 2.64 77 4 C51.59 4 26.18 4 0 4 C0 2.68 0 1.36 0 0 Z " fill="#787878" transform="translate(1018,137)"/>
<path d="M0 0 C0.33 0.66 0.66 1.32 1 2 C1.66 2 2.32 2 3 2 C3 2.66 3 3.32 3 4 C3.66 4 4.32 4 5 4 C5 5.32 5 6.64 5 8 C5.66 8 6.32 8 7 8 C7 38.69 7 69.38 7 101 C6.67 101 6.34 101 6 101 C5.98969254 99.9144986 5.97938507 98.82899719 5.96876526 97.71060181 C5.87115668 87.498163 5.76843468 77.28578683 5.66066074 67.07345009 C5.6054141 61.8227514 5.55199131 56.57204716 5.50268555 51.32128906 C5.45506769 46.25733858 5.40272583 41.19345726 5.34705925 36.12958908 C5.32662399 34.19424529 5.30791288 32.25888253 5.29092598 30.3235054 C5.26690787 27.62005988 5.23684981 24.91674578 5.20532227 22.21337891 C5.1995668 21.40705521 5.19381134 20.60073151 5.18788147 19.76997375 C5.22281257 15.75426995 5.22281257 15.75426995 4 12 C3.960008 10.00039988 3.95653201 7.99952758 4 6 C3.34 6 2.68 6 2 6 C2 5.34 2 4.68 2 4 C1.34 4 0.68 4 0 4 C0 2.68 0 1.36 0 0 Z " fill="#8F8F8F" transform="translate(565,123)"/>
<path d="M0 0 C0.66 0 1.32 0 2 0 C2 1.32 2 2.64 2 4 C2.66 4 3.32 4 4 4 C4 4.66 4 5.32 4 6 C4.66 6 5.32 6 6 6 C6 7.32 6 8.64 6 10 C6.66 10 7.32 10 8 10 C8 40.03 8 70.06 8 101 C7.67 101 7.34 101 7 101 C6.98969254 99.92338104 6.97938507 98.84676208 6.96876526 97.73751831 C6.87095579 87.58519224 6.76821466 77.43292643 6.66066074 67.28069878 C6.60552604 62.06150249 6.55212132 56.8423005 6.50268555 51.62304688 C6.45490237 46.58501548 6.40255485 41.54705019 6.34705925 36.50909805 C6.32669882 34.58822402 6.30797553 32.6673319 6.29092598 30.74642563 C6.26674182 28.05337756 6.23670699 25.36045293 6.20532227 22.66748047 C6.1995668 21.87553787 6.19381134 21.08359528 6.18788147 20.26765442 C6.1324631 16.07664008 5.8182321 12.12885961 5 8 C4.34 8 3.68 8 3 8 C3 7.34 3 6.68 3 6 C2.34 6 1.68 6 1 6 C0.67 4.02 0.34 2.04 0 0 Z " fill="#9C9C9C" transform="translate(475,123)"/>
<path d="M0 0 C0.33 0 0.66 0 1 0 C1 2.64 1 5.28 1 8 C0.34 8 -0.32 8 -1 8 C-1 39.35 -1 70.7 -1 103 C-1.33 103 -1.66 103 -2 103 C-2.04635069 90.45641077 -2.08188317 77.91284194 -2.10362434 65.36918449 C-2.11405926 59.54459482 -2.12821328 53.72006376 -2.15087891 47.89550781 C-2.17261748 42.27397206 -2.18457082 36.65249267 -2.18975449 31.03091812 C-2.1934484 28.88673134 -2.20066166 26.74254763 -2.21146011 24.59838486 C-2.22598836 21.59400528 -2.22797736 18.58985831 -2.22705078 15.58544922 C-2.23424133 14.69999924 -2.24143188 13.81454926 -2.24884033 12.90226746 C-2.23314757 8.19659297 -1.81703475 4.42533432 0 0 Z " fill="#A8A8A8" transform="translate(894,121)"/>
<path d="M0 0 C6.93 0 13.86 0 21 0 C21 0.66 21 1.32 21 2 C24.96 2 28.92 2 33 2 C33 2.66 33 3.32 33 4 C34.98 4.66 36.96 5.32 39 6 C39 6.33 39 6.66 39 7 C37.02 7 35.04 7 33 7 C33 6.34 33 5.68 33 5 C28.66415841 4.1888339 24.4774902 3.82009925 20.0703125 3.68359375 C18.13671875 3.62075195 18.13671875 3.62075195 16.1640625 3.55664062 C14.81771091 3.51683972 13.47135671 3.47712727 12.125 3.4375 C10.75519667 3.39424817 9.38540479 3.35063188 8.015625 3.30664062 C4.67717843 3.20084478 1.338661 3.09875628 -2 3 C-2 3.66 -2 4.32 -2 5 C-3.98 5 -5.96 5 -8 5 C-7.34 4.67 -6.68 4.34 -6 4 C-6 3.34 -6 2.68 -6 2 C-4.02 2 -2.04 2 0 2 C0 1.34 0 0.68 0 0 Z " fill="#8D8D8D" transform="translate(442,80)"/>
<path d="M0 0 C2.64 0.33 5.28 0.66 8 1 C8 1.66 8 2.32 8 3 C25.09293918 3.24052624 25.09293918 3.24052624 42 1 C39.35641983 4.14919485 37.89322867 5.84301484 33.77026367 6.56762695 C32.58150635 6.54144287 31.39274902 6.51525879 30.16796875 6.48828125 C28.87568359 6.47216797 27.58339844 6.45605469 26.25195312 6.43945312 C24.89711843 6.39768274 23.54230072 6.35535809 22.1875 6.3125 C20.81319134 6.28740069 19.43883884 6.26459036 18.06445312 6.24414062 C14.70852024 6.18526461 11.3548191 6.1030642 8 6 C8 5.34 8 4.68 8 4 C6.68 4 5.36 4 4 4 C4 3.34 4 2.68 4 2 C2.68 2 1.36 2 0 2 C0 1.34 0 0.68 0 0 Z " fill="#ABABAB" transform="translate(1036,192)"/>
<path d="M0 0 C0.66 0 1.32 0 2 0 C1.67 1.98 1.34 3.96 1 6 C0.34 6 -0.32 6 -1 6 C-1 35.37 -1 64.74 -1 95 C-1.33 95 -1.66 95 -2 95 C-2 64.31 -2 33.62 -2 2 C-1.34 2 -0.68 2 0 2 C0 1.34 0 0.68 0 0 Z " fill="#F0F0F0" transform="translate(517,127)"/>
<path d="M0 0 C1.32 0 2.64 0 4 0 C4 0.66 4 1.32 4 2 C5.32 2 6.64 2 8 2 C8 2.66 8 3.32 8 4 C8.99 4 9.98 4 11 4 C11 4.66 11 5.32 11 6 C21.56 6 32.12 6 43 6 C42.34 6.33 41.68 6.66 41 7 C41 7.66 41 8.32 41 9 C37.02108648 9.11735877 33.0426254 9.18763654 29.0625 9.25 C27.94552734 9.28351563 26.82855469 9.31703125 25.67773438 9.3515625 C18.43000432 9.43657986 13.34792523 8.46873668 7 5 C5.33805262 4.32165413 3.67401097 3.64800425 2 3 C2 2.34 2 1.68 2 1 C1.34 0.67 0.68 0.34 0 0 Z " fill="#ABABAB" transform="translate(761,189)"/>
<path d="M0 0 C4.25414623 -0.02465622 8.50825498 -0.04283899 12.76245117 -0.05493164 C14.21070073 -0.05997101 15.65894517 -0.06680253 17.10717773 -0.07543945 C19.18474588 -0.08752247 21.26224697 -0.09323211 23.33984375 -0.09765625 C24.59144287 -0.10289307 25.84304199 -0.10812988 27.13256836 -0.11352539 C30 0 30 0 31 1 C31.08748207 2.92667507 31.10697334 4.85651861 31.09765625 6.78515625 C31.09443359 7.95498047 31.09121094 9.12480469 31.08789062 10.33007812 C31.07532227 12.17762695 31.07532227 12.17762695 31.0625 14.0625 C31.05798828 15.29806641 31.05347656 16.53363281 31.04882812 17.80664062 C31.03699608 20.87114117 31.02051173 23.93554721 31 27 C30.01 27 29.02 27 28 27 C28 26.34 28 25.68 28 25 C28.66 25 29.32 25 30 25 C30 17.41 30 9.82 30 2 C22.08 1.67 14.16 1.34 6 1 C6 1.66 6 2.32 6 3 C3.36 3 0.72 3 -2 3 C-2 3.66 -2 4.32 -2 5 C-3.98 5 -5.96 5 -8 5 C-7.34 4.67 -6.68 4.34 -6 4 C-6 3.34 -6 2.68 -6 2 C-4.02 2 -2.04 2 0 2 C0 1.34 0 0.68 0 0 Z " fill="#777777" transform="translate(933,82)"/>
<path d="M0 0 C0.33 0 0.66 0 1 0 C1.33 21.12 1.66 42.24 2 64 C2.66 64 3.32 64 4 64 C4.33 67.3 4.66 70.6 5 74 C4.34 74 3.68 74 3 74 C3 72.02 3 70.04 3 68 C2.34 68 1.68 68 1 68 C0.00313839 60.09645782 -0.13140792 52.29481262 -0.09765625 44.3359375 C-0.0962413 43.06271637 -0.09482635 41.78949524 -0.09336853 40.47769165 C-0.08875005 37.12735022 -0.07979885 33.77707973 -0.06866455 30.42675781 C-0.0583512 26.99414679 -0.05384986 23.56152837 -0.04882812 20.12890625 C-0.03785054 13.4192516 -0.02115135 6.70962988 0 0 Z " fill="#4B4B4B" transform="translate(231,117)"/>
<path d="M0 0 C0.66 0 1.32 0 2 0 C2 1.32 2 2.64 2 4 C1.34 4 0.68 4 0 4 C0 5.32 0 6.64 0 8 C-0.66 8 -1.32 8 -2 8 C-1.979375 9.27875 -1.95875 10.5575 -1.9375 11.875 C-1.875 15.75 -1.875 15.75 -3 18 C-3.15306901 19.81171098 -3.24946661 21.6283794 -3.31640625 23.4453125 C-3.35830078 24.52167969 -3.40019531 25.59804687 -3.44335938 26.70703125 C-3.50233398 28.39892578 -3.50233398 28.39892578 -3.5625 30.125 C-3.60568359 31.26066406 -3.64886719 32.39632812 -3.69335938 33.56640625 C-3.7996604 36.37747768 -3.90169405 39.18863945 -4 42 C-6 40 -6 40 -6.23046875 36.21875 C-6.22778506 34.64577041 -6.21279091 33.07277855 -6.1875 31.5 C-6.18105469 30.68934082 -6.17460938 29.87868164 -6.16796875 29.04345703 C-6.09461937 23.31189088 -5.73398497 17.68838355 -5 12 C-4.34 12 -3.68 12 -3 12 C-3.061875 11.13375 -3.12375 10.2675 -3.1875 9.375 C-2.97544498 5.55800967 -1.87955693 3.28922464 0 0 Z " fill="#949494" transform="translate(990,123)"/>
<path d="M0 0 C0.33 0 0.66 0 1 0 C1 13.86 1 27.72 1 42 C1.66 42 2.32 42 3 42 C3 43.32 3 44.64 3 46 C3.66 46 4.32 46 5 46 C5 47.65 5 49.3 5 51 C5.66 51 6.32 51 7 51 C6.67 51.99 6.34 52.98 6 54 C1.93340762 50.47561994 0.24330994 47.19003459 -0.17047119 41.76495361 C-0.23105553 39.10388308 -0.22480806 36.4506559 -0.1953125 33.7890625 C-0.1924826 32.82092621 -0.18965271 31.85278992 -0.18673706 30.85531616 C-0.17558696 27.77841572 -0.1504918 24.70181172 -0.125 21.625 C-0.11496352 19.5325563 -0.10583884 17.44010802 -0.09765625 15.34765625 C-0.07566453 10.23165749 -0.04117025 5.11587892 0 0 Z " fill="#6D6D6D" transform="translate(262,133)"/>
<path d="M0 0 C0.76837189 0.0028299 1.53674377 0.00565979 2.32839966 0.00857544 C4.76336771 0.01969939 7.19795712 0.0447889 9.6328125 0.0703125 C11.29166132 0.08035239 12.95051596 0.08947647 14.609375 0.09765625 C18.65899829 0.11961313 22.70834137 0.15408844 26.7578125 0.1953125 C26.7578125 0.8553125 26.7578125 1.5153125 26.7578125 2.1953125 C28.0778125 2.5253125 29.3978125 2.8553125 30.7578125 3.1953125 C28.1178125 3.1953125 25.4778125 3.1953125 22.7578125 3.1953125 C22.7578125 2.5353125 22.7578125 1.8753125 22.7578125 1.1953125 C18.61122015 1.27697208 14.46601535 1.38974573 10.3203125 1.5078125 C9.15564453 1.53037109 7.99097656 1.55292969 6.79101562 1.57617188 C0.61375271 1.76758002 -4.64104136 2.22567176 -10.35961914 4.66088867 C-12.65614036 5.31282551 -14.00746855 4.94249713 -16.2421875 4.1953125 C-15.5821875 4.1953125 -14.9221875 4.1953125 -14.2421875 4.1953125 C-14.2421875 3.5353125 -14.2421875 2.8753125 -14.2421875 2.1953125 C-9.43086052 0.28269421 -5.11249423 -0.07183915 0 0 Z " fill="#5A5A5A" transform="translate(775.2421875,81.8046875)"/>
<path d="M0 0 C0.33 0.66 0.66 1.32 1 2 C1.66 2 2.32 2 3 2 C3 3.98 3 5.96 3 8 C3.66 8 4.32 8 5 8 C5 10.64 5 13.28 5 16 C5.66 16 6.32 16 7 16 C7 23.92 7 31.84 7 40 C6.34 40 5.68 40 5 40 C5.33 32.74 5.66 25.48 6 18 C5.34 18 4.68 18 4 18 C4 16.68 4 15.36 4 14 C3.34 14 2.68 14 2 14 C2 11.36 2 8.72 2 6 C1.34 6 0.68 6 0 6 C0 4.02 0 2.04 0 0 Z " fill="#A7A7A7" transform="translate(852,125)"/>
<path d="M0 0 C1.40884781 0.01004931 2.81770255 0.01917171 4.2265625 0.02734375 C7.6512205 0.05080031 11.07551939 0.08362616 14.5 0.125 C14.5 0.455 14.5 0.785 14.5 1.125 C13.66227051 1.15005615 12.82454102 1.1751123 11.96142578 1.20092773 C8.85647744 1.29600357 5.75169819 1.39524025 2.64697266 1.49731445 C0.64105193 1.56198251 -1.36502228 1.62183106 -3.37109375 1.68164062 C-5.25634766 1.74448242 -5.25634766 1.74448242 -7.1796875 1.80859375 C-8.34226074 1.84525146 -9.50483398 1.88190918 -10.70263672 1.91967773 C-13.4535501 1.94321659 -13.4535501 1.94321659 -15.5 3.125 C-17.49960012 3.164992 -19.50047242 3.16846799 -21.5 3.125 C-21.5 3.785 -21.5 4.445 -21.5 5.125 C-22.16 5.125 -22.82 5.125 -23.5 5.125 C-23.5 5.785 -23.5 6.445 -23.5 7.125 C-26.14 7.125 -28.78 7.125 -31.5 7.125 C-28.43882432 4.50113513 -27.76826873 4.125 -23.5 4.125 C-23.5 3.465 -23.5 2.805 -23.5 2.125 C-15.76269471 -0.40757158 -8.04403612 -0.10012539 0 0 Z " fill="#5C5C5C" transform="translate(1055.5,81.875)"/>
<path d="M0 0 C8.91 0 17.82 0 27 0 C27 0.33 27 0.66 27 1 C19.08 1 11.16 1 3 1 C3 1.66 3 2.32 3 3 C2.34 3 1.68 3 1 3 C0.67 11.25 0.34 19.5 0 28 C-0.33 28 -0.66 28 -1 28 C-1.02912348 24.27084983 -1.04684037 20.5417291 -1.0625 16.8125 C-1.07087891 15.75740234 -1.07925781 14.70230469 -1.08789062 13.61523438 C-1.09111328 12.59365234 -1.09433594 11.57207031 -1.09765625 10.51953125 C-1.10289307 9.58214111 -1.10812988 8.64475098 -1.11352539 7.67895508 C-1 5 -1 5 0 0 Z " fill="#575757" transform="translate(648,82)"/>
<path d="M0 0 C0.66 0 1.32 0 2 0 C2 1.32 2 2.64 2 4 C-6.91 4 -15.82 4 -25 4 C-25 3.34 -25 2.68 -25 2 C-16.75 2 -8.5 2 0 2 C0 1.34 0 0.68 0 0 Z " fill="#CDCDCD" transform="translate(675,224)"/>
<path d="M0 0 C0.88558594 -0.00322266 1.77117188 -0.00644531 2.68359375 -0.00976562 C7.55164685 0.03013645 11.56006934 0.42174489 16.125 2.3125 C16.125 2.9725 16.125 3.6325 16.125 4.3125 C17.445 4.3125 18.765 4.3125 20.125 4.3125 C20.125 5.3025 20.125 6.2925 20.125 7.3125 C19.465 7.3125 18.805 7.3125 18.125 7.3125 C18.125 6.6525 18.125 5.9925 18.125 5.3125 C16.805 5.3125 15.485 5.3125 14.125 5.3125 C14.125 4.6525 14.125 3.9925 14.125 3.3125 C11.485 3.3125 8.845 3.3125 6.125 3.3125 C6.125 2.6525 6.125 1.9925 6.125 1.3125 C3.91642945 1.45469564 1.70815013 1.60141847 -0.5 1.75 C-1.72976563 1.83121094 -2.95953125 1.91242188 -4.2265625 1.99609375 C-7.49032388 2.27913944 -10.65443859 2.72288953 -13.875 3.3125 C-9.99911579 -0.83710484 -5.26165838 -0.09490726 0 0 Z " fill="#4B4B4B" transform="translate(785.875,111.6875)"/>
<path d="M0 0 C0.66 1.32 1.32 2.64 2 4 C2.66 4 3.32 4 4 4 C4 5.98 4 7.96 4 10 C4.66 10 5.32 10 6 10 C6.144375 11.093125 6.28875 12.18625 6.4375 13.3125 C6.88288104 16.93122987 6.88288104 16.93122987 8 20 C8.66 20 9.32 20 10 20 C10 20.66 10 21.32 10 22 C10.66 22 11.32 22 12 22 C12 22.99 12 23.98 12 25 C12.66 25 13.32 25 14 25 C14 25.66 14 26.32 14 27 C13.01 27 12.02 27 11 27 C10.34 25.02 9.68 23.04 9 21 C8.34 21 7.68 21 7 21 C3.46901375 14.30330194 0 7.69228672 0 0 Z " fill="#A0A0A0" transform="translate(986,173)"/>
<path d="M0 0 C0.66 0 1.32 0 2 0 C2 5.94 2 11.88 2 18 C1.34 18 0.68 18 0 18 C0 17.34 0 16.68 0 16 C-0.66 16 -1.32 16 -2 16 C-2 11.38 -2 6.76 -2 2 C-1.34 2 -0.68 2 0 2 C0 1.34 0 0.68 0 0 Z " fill="#696969" transform="translate(646,44)"/>
<path d="M0 0 C3.39576062 -0.05830787 6.7913915 -0.09369946 10.1875 -0.125 C11.14720703 -0.14175781 12.10691406 -0.15851563 13.09570312 -0.17578125 C14.02705078 -0.18222656 14.95839844 -0.18867187 15.91796875 -0.1953125 C16.77156982 -0.20578613 17.6251709 -0.21625977 18.50463867 -0.22705078 C21.30726815 0.02795806 23.44729419 0.84458578 26 2 C26 2.33 26 2.66 26 3 C24.02 3 22.04 3 20 3 C20 2.34 20 1.68 20 1 C14.72 1 9.44 1 4 1 C4 1.66 4 2.32 4 3 C2.68 3 1.36 3 0 3 C0 3.66 0 4.32 0 5 C-1.32 5 -2.64 5 -4 5 C-4 4.34 -4 3.68 -4 3 C-2.68 2.67 -1.36 2.34 0 2 C0 1.34 0 0.68 0 0 Z " fill="#5B5B5B" transform="translate(1044,112)"/>
<path d="M0 0 C1.32 0 2.64 0 4 0 C4.33 1.32 4.66 2.64 5 4 C9.29 4 13.58 4 18 4 C18 3.34 18 2.68 18 2 C19.32 2.33 20.64 2.66 22 3 C17.80406341 6.47249925 13.88125943 6.43140226 8.671875 6.3046875 C5.30707013 5.92098168 2.83060393 4.83606741 0 3 C0 2.01 0 1.02 0 0 Z " fill="#313131" transform="translate(650,64)"/>
<path d="M0 0 C0.66 0 1.32 0 2 0 C2 1.32 2 2.64 2 4 C-5.26 4 -12.52 4 -20 4 C-20 3.34 -20 2.68 -20 2 C-13.4 2 -6.8 2 0 2 C0 1.34 0 0.68 0 0 Z " fill="#5F5F5F" transform="translate(822,137)"/>
<path d="M0 0 C0.66 0 1.32 0 2 0 C2 1.32 2 2.64 2 4 C-4.27 4 -10.54 4 -17 4 C-17 3.34 -17 2.68 -17 2 C-11.39 2 -5.78 2 0 2 C0 1.34 0 0.68 0 0 Z " fill="#585858" transform="translate(1093,137)"/>
<path d="M0 0 C0.99 0.33 1.98 0.66 3 1 C3 1.99 3 2.98 3 4 C3.66 4 4.32 4 5 4 C5 6.64 5 9.28 5 12 C4.34 12 3.68 12 3 12 C3 12.66 3 13.32 3 14 C2.34 13.67 1.68 13.34 1 13 C1.33 10.03 1.66 7.06 2 4 C1.34 4 0.68 4 0 4 C0 2.68 0 1.36 0 0 Z " fill="#4B4B4B" transform="translate(1100,196)"/>
<path d="M0 0 C0.66 0 1.32 0 2 0 C1.99476318 0.59538574 1.98952637 1.19077148 1.98413086 1.80419922 C1.96338001 4.49445547 1.95034593 7.18469489 1.9375 9.875 C1.92912109 10.81214844 1.92074219 11.74929687 1.91210938 12.71484375 C1.90888672 13.61074219 1.90566406 14.50664062 1.90234375 15.4296875 C1.89710693 16.25710449 1.89187012 17.08452148 1.88647461 17.93701172 C1.86647862 20.06411757 1.86647862 20.06411757 3 22 C3.13415472 24.6723621 3.04318541 27.32250488 3 30 C2.67 30 2.34 30 2 30 C-0.28487759 23.65811536 -0.23299776 17.75420732 -0.125 11.0625 C-0.11597656 9.99708984 -0.10695313 8.93167969 -0.09765625 7.83398438 C-0.07423414 5.22241966 -0.04143452 2.61133063 0 0 Z " fill="#DEDEDE" transform="translate(983,143)"/>
<path d="M0 0 C0.33 0 0.66 0 1 0 C1 2.64 1 5.28 1 8 C0.34 8 -0.32 8 -1 8 C-1 14.27 -1 20.54 -1 27 C-1.33 27 -1.66 27 -2 27 C-2.05845196 23.62507371 -2.09374742 20.25027913 -2.125 16.875 C-2.14175781 15.92367187 -2.15851562 14.97234375 -2.17578125 13.9921875 C-2.21104528 8.91416745 -2.03333617 4.75512475 0 0 Z " fill="#999999" transform="translate(894,121)"/>
<path d="M0 0 C2.97 0.495 2.97 0.495 6 1 C6 1.66 6 2.32 6 3 C7.65 3 9.3 3 11 3 C11 3.66 11 4.32 11 5 C12.32 5 13.64 5 15 5 C15.33 5.99 15.66 6.98 16 8 C14.68 8 13.36 8 12 8 C12 7.34 12 6.68 12 6 C10.68 6 9.36 6 8 6 C8 5.34 8 4.68 8 4 C6.68 4 5.36 4 4 4 C4 3.34 4 2.68 4 2 C2.68 2 1.36 2 0 2 C0 1.34 0 0.68 0 0 Z " fill="#515151" transform="translate(123,216)"/>
<path d="M0 0 C0.66 0 1.32 0 2 0 C1.67 1.98 1.34 3.96 1 6 C0.34 6 -0.32 6 -1 6 C-1 11.28 -1 16.56 -1 22 C-1.33 22 -1.66 22 -2 22 C-2 15.4 -2 8.8 -2 2 C-1.34 2 -0.68 2 0 2 C0 1.34 0 0.68 0 0 Z " fill="#CACACA" transform="translate(517,127)"/>
<path d="M0 0 C0.66 0 1.32 0 2 0 C2 1.32 2 2.64 2 4 C1.34 4 0.68 4 0 4 C0 5.32 0 6.64 0 8 C-0.66 8 -1.32 8 -2 8 C-1.938125 9.918125 -1.938125 9.918125 -1.875 11.875 C-1.8046875 14.0546875 -1.8046875 14.0546875 -2 16 C-2.66 16.66 -3.32 17.32 -4 18 C-3.40546697 5.33029613 -3.40546697 5.33029613 0 0 Z " fill="#8C8C8C" transform="translate(990,123)"/>
<path d="M0 0 C0.99 0 1.98 0 3 0 C3 0.99 3 1.98 3 3 C3.66 3 4.32 3 5 3 C5.99 6.63 6.98 10.26 8 14 C7.34 14 6.68 14 6 14 C6 13.34 6 12.68 6 12 C5.34 12 4.68 12 4 12 C4 10.02 4 8.04 4 6 C3.34 6 2.68 6 2 6 C2 4.68 2 3.36 2 2 C1.34 2 0.68 2 0 2 C0 1.34 0 0.68 0 0 Z " fill="#979797" transform="translate(844,111)"/>
<path d="M0 0 C1.32 0 2.64 0 4 0 C4 0.66 4 1.32 4 2 C5.32 2 6.64 2 8 2 C8 2.66 8 3.32 8 4 C8.66 4 9.32 4 10 4 C10 4.66 10 5.32 10 6 C10.66 6.33 11.32 6.66 12 7 C10.68 7 9.36 7 8 7 C8 6.34 8 5.68 8 5 C6.02 5 4.04 5 2 5 C2 3.68 2 2.36 2 1 C1.34 0.67 0.68 0.34 0 0 Z " fill="#606060" transform="translate(816,88)"/>
<path d="M0 0 C0.99 0 1.98 0 3 0 C3 1.32 3 2.64 3 4 C3.66 4 4.32 4 5 4 C5 4.66 5 5.32 5 6 C5.66 6 6.32 6 7 6 C7.33 6.99 7.66 7.98 8 9 C8.66 9.33 9.32 9.66 10 10 C9.67 10.66 9.34 11.32 9 12 C8.01 11.67 7.02 11.34 6 11 C6 10.34 6 9.68 6 9 C5.34 9 4.68 9 4 9 C4 8.01 4 7.02 4 6 C3.34 6 2.68 6 2 6 C2 4.68 2 3.36 2 2 C1.34 2 0.68 2 0 2 C0 1.34 0 0.68 0 0 Z " fill="#818181" transform="translate(751,177)"/>
<path d="M0 0 C1.2065625 0.0309375 1.2065625 0.0309375 2.4375 0.0625 C1.4475 0.5575 1.4475 0.5575 0.4375 1.0625 C0.4375 1.7225 0.4375 2.3825 0.4375 3.0625 C-5.5025 3.3925 -11.4425 3.7225 -17.5625 4.0625 C-17.5625 3.4025 -17.5625 2.7425 -17.5625 2.0625 C-16.56347656 2.00191406 -15.56445312 1.94132812 -14.53515625 1.87890625 C-13.24480469 1.79511719 -11.95445312 1.71132812 -10.625 1.625 C-9.33722656 1.54378906 -8.04945313 1.46257812 -6.72265625 1.37890625 C-3.45287847 1.0515243 -3.10244957 0.0756695 0 0 Z " fill="#333333" transform="translate(958.5625,109.9375)"/>
<path d="M0 0 C-3.3730619 2.96829447 -6.62968884 4.06350475 -11 5 C-13.4375 4.625 -13.4375 4.625 -15 4 C-14.34 4 -13.68 4 -13 4 C-13 3.34 -13 2.68 -13 2 C-8.49646738 0.24252386 -4.82360189 -0.19294408 0 0 Z " fill="#898989" transform="translate(774,82)"/>
<path d="M0 0 C0.66 0 1.32 0 2 0 C2 1.32 2 2.64 2 4 C2.66 4 3.32 4 4 4 C4 5.65 4 7.3 4 9 C4.66 9 5.32 9 6 9 C5.67 9.99 5.34 10.98 5 12 C2.69857565 10.21825212 1.19965609 8.83695835 0.51171875 5.953125 C0.27676898 3.9753389 0.13248542 1.98728128 0 0 Z " fill="#838383" transform="translate(263,175)"/>
<path d="M0 0 C2.64 0 5.28 0 8 0 C8 0.66 8 1.32 8 2 C9.98 2.66 11.96 3.32 14 4 C14 4.33 14 4.66 14 5 C12.02 5 10.04 5 8 5 C8 4.34 8 3.68 8 3 C5.36 2.34 2.72 1.68 0 1 C0 0.67 0 0.34 0 0 Z " fill="#9C9C9C" transform="translate(467,82)"/>
<path d="M0 0 C0.66 0 1.32 0 2 0 C2 1.32 2 2.64 2 4 C2.66 4 3.32 4 4 4 C4 7.3 4 10.6 4 14 C3.34 14 2.68 14 2 14 C1.34 9.38 0.68 4.76 0 0 Z " fill="#A8A8A8" transform="translate(677,44)"/>
<path d="M0 0 C0 0.66 0 1.32 0 2 C-2.64 2 -5.28 2 -8 2 C-8 2.66 -8 3.32 -8 4 C-9.98 4 -11.96 4 -14 4 C-13.34 3.67 -12.68 3.34 -12 3 C-12 2.34 -12 1.68 -12 1 C-7.915021 0.45533613 -4.1274515 0 0 0 Z " fill="#5E5E5E" transform="translate(939,83)"/>
<path d="M0 0 C0.66 0 1.32 0 2 0 C2 1.32 2 2.64 2 4 C2.66 4 3.32 4 4 4 C4 4.66 4 5.32 4 6 C2.02 6.66 0.04 7.32 -2 8 C-2 6.68 -2 5.36 -2 4 C-1.34 4 -0.68 4 0 4 C0 2.68 0 1.36 0 0 Z " fill="#3B3B3B" transform="translate(721,121)"/>
<path d="M0 0 C0 0.66 0 1.32 0 2 C-0.66 2 -1.32 2 -2 2 C-2 2.66 -2 3.32 -2 4 C-2.66 4 -3.32 4 -4 4 C-4 4.66 -4 5.32 -4 6 C-5.32 6 -6.64 6 -8 6 C-8 5.34 -8 4.68 -8 4 C-7.34 4 -6.68 4 -6 4 C-6 3.01 -6 2.02 -6 1 C-3.92446352 0.4465236 -2.15634036 0 0 0 Z " fill="#737373" transform="translate(1095,216)"/>
<path d="M0 0 C0.66 0 1.32 0 2 0 C2 1.32 2 2.64 2 4 C1.34 4 0.68 4 0 4 C0 5.32 0 6.64 0 8 C-1.32 8 -2.64 8 -4 8 C-4 7.34 -4 6.68 -4 6 C-3.34 6 -2.68 6 -2 6 C-2 4.68 -2 3.36 -2 2 C-1.34 2 -0.68 2 0 2 C0 1.34 0 0.68 0 0 Z " fill="#B5B5B5" transform="translate(1026,125)"/>
<path d="M0 0 C1.32 0 2.64 0 4 0 C4 0.66 4 1.32 4 2 C5.32 2 6.64 2 8 2 C8 2.66 8 3.32 8 4 C8.66 4 9.32 4 10 4 C10 4.99 10 5.98 10 7 C9.34 7 8.68 7 8 7 C8 6.34 8 5.68 8 5 C7.34 5 6.68 5 6 5 C6 4.34 6 3.68 6 3 C4.35 3 2.7 3 1 3 C0.67 2.01 0.34 1.02 0 0 Z " fill="#7C7C7C" transform="translate(572,88)"/>
<path d="M0 0 C2.97 0.495 2.97 0.495 6 1 C6 1.66 6 2.32 6 3 C7.32 3.33 8.64 3.66 10 4 C10 4.66 10 5.32 10 6 C8.68 6 7.36 6 6 6 C6 5.34 6 4.68 6 4 C5.34 4 4.68 4 4 4 C4 3.34 4 2.68 4 2 C2.68 2 1.36 2 0 2 C0 1.34 0 0.68 0 0 Z " fill="#494949" transform="translate(255,216)"/>
<path d="M0 0 C0.99 0 1.98 0 3 0 C3 1.65 3 3.3 3 5 C3.66 5 4.32 5 5 5 C5 5.99 5 6.98 5 8 C5.66 8 6.32 8 7 8 C6.67 8.99 6.34 9.98 6 11 C6 10.34 6 9.68 6 9 C5.34 9 4.68 9 4 9 C4 8.34 4 7.68 4 7 C3.34 7 2.68 7 2 7 C1.34 4.69 0.68 2.38 0 0 Z " fill="#555555" transform="translate(236,193)"/>
<path d="M0 0 C1.28132813 0.00902344 2.56265625 0.01804687 3.8828125 0.02734375 C4.87023437 0.03894531 5.85765625 0.05054687 6.875 0.0625 C6.875 0.3925 6.875 0.7225 6.875 1.0625 C2.915 1.0625 -1.045 1.0625 -5.125 1.0625 C-5.125 1.7225 -5.125 2.3825 -5.125 3.0625 C-6.445 3.0625 -7.765 3.0625 -9.125 3.0625 C-9.125 2.4025 -9.125 1.7425 -9.125 1.0625 C-6.12186252 -0.43906874 -3.33432478 -0.03031204 0 0 Z " fill="#4F4F4F" transform="translate(451.125,111.9375)"/>
<path d="M0 0 C1.98 0 3.96 0 6 0 C6 0.66 6 1.32 6 2 C7.98 2 9.96 2 12 2 C10.5 3.125 10.5 3.125 8 4 C5.2226918 3.57598348 2.70360217 2.81108065 0 2 C0 1.34 0 0.68 0 0 Z " fill="#C2C2C2" transform="translate(802,82)"/>
<path d="M0 0 C1.32 0 2.64 0 4 0 C4.33 1.32 4.66 2.64 5 4 C5.99 4 6.98 4 8 4 C8 4.66 8 5.32 8 6 C2.25 4.125 2.25 4.125 0 3 C0 2.01 0 1.02 0 0 Z " fill="#454545" transform="translate(650,64)"/>
<path d="M0 0 C0.66 0 1.32 0 2 0 C2 0.66 2 1.32 2 2 C4.31 2 6.62 2 9 2 C8.67 2.66 8.34 3.32 8 4 C5.36 4 2.72 4 0 4 C0 2.68 0 1.36 0 0 Z " fill="#686868" transform="translate(1018,137)"/>
<path d="M0 0 C0.66 0 1.32 0 2 0 C2 0.66 2 1.32 2 2 C2.66 2 3.32 2 4 2 C4.33 3.98 4.66 5.96 5 8 C4.34 8 3.68 8 3 8 C3 7.34 3 6.68 3 6 C2.01 5.67 1.02 5.34 0 5 C0 3.35 0 1.7 0 0 Z " fill="#383838" transform="translate(673,40)"/>
<path d="M0 0 C0.66 0 1.32 0 2 0 C2 1.32 2 2.64 2 4 C2.66 4 3.32 4 4 4 C4 4.66 4 5.32 4 6 C3.34 6 2.68 6 2 6 C2 6.66 2 7.32 2 8 C1.34 8 0.68 8 0 8 C0 5.36 0 2.72 0 0 Z " fill="#0C0C0C" transform="translate(394,216)"/>
<path d="M0 0 C2.97 0.33 5.94 0.66 9 1 C9 1.66 9 2.32 9 3 C9.66 3.33 10.32 3.66 11 4 C9.35 4 7.7 4 6 4 C6 3.34 6 2.68 6 2 C4.02 2 2.04 2 0 2 C0 1.34 0 0.68 0 0 Z " fill="#616161" transform="translate(1072,83)"/>
<path d="M0 0 C2.64 0 5.28 0 8 0 C8 0.66 8 1.32 8 2 C6.68 2 5.36 2 4 2 C4 2.66 4 3.32 4 4 C2.68 3.67 1.36 3.34 0 3 C0 2.01 0 1.02 0 0 Z " fill="#2F2F2F" transform="translate(808,220)"/>
<path d="M0 0 C2.64 0.33 5.28 0.66 8 1 C8 1.99 8 2.98 8 4 C6.68 4 5.36 4 4 4 C4 3.34 4 2.68 4 2 C2.68 2 1.36 2 0 2 C0 1.34 0 0.68 0 0 Z " fill="#919191" transform="translate(1036,192)"/>
<path d="M0 0 C1.32 0 2.64 0 4 0 C4 0.66 4 1.32 4 2 C4.66 2.33 5.32 2.66 6 3 C6 3.99 6 4.98 6 6 C5.34 6 4.68 6 4 6 C4 5.34 4 4.68 4 4 C3.34 4 2.68 4 2 4 C2 3.34 2 2.68 2 2 C1.34 2 0.68 2 0 2 C0 1.34 0 0.68 0 0 Z " fill="#2D2D2D" transform="translate(117,210)"/>
<path d="M0 0 C0.99 0.33 1.98 0.66 3 1 C3.33 2.98 3.66 4.96 4 7 C3.34 7 2.68 7 2 7 C2 6.01 2 5.02 2 4 C1.34 4 0.68 4 0 4 C0 2.68 0 1.36 0 0 Z " fill="#444444" transform="translate(723,189)"/>
<path d="M0 0 C1.90401138 1.90401138 2.93520439 3.33425686 3.19921875 6.046875 C3.1886578 8.03233273 3.09915043 10.0169914 3 12 C2.67 12 2.34 12 2 12 C0.70756464 7.8803623 -0.26252625 4.33168317 0 0 Z " fill="#CDCDCD" transform="translate(983,161)"/>
<path d="M0 0 C2.64 0.33 5.28 0.66 8 1 C8 1.99 8 2.98 8 4 C6.68 4 5.36 4 4 4 C4 3.34 4 2.68 4 2 C2.68 1.67 1.36 1.34 0 1 C0 0.67 0 0.34 0 0 Z " fill="#484848" transform="translate(461,113)"/>
</svg>
